<svg xmlns="http://www.w3.org/2000/svg" viewBox="0 0 500 500"><g id="freepik--background-complete--inject-27"><path d="M40.61,465.44c-1.43-1.22-4.61-5.09-2.15-9.6.9-1.65,2.8-2.46,4.53-3.19a18.4,18.4,0,0,0,5-2.58c2.69-2.29,3.44-6.1,5.23-9.16,2-3.52,5.89-6.15,9.94-6,4.64.21,8.51,4,10.26,8.32s1.82,9.12,1.85,13.78c0,2.58-.09,5.49-2,7.23-1.74,1.61-4.37,1.63-6.74,1.56l-25.36-.78" style="fill:#f5f5f5"></path><path d="M89.11,395.71H22.42l12,71.63a8,8,0,0,0,5.7,6.38l.23.06c.2.05.39.12.6.16a8.45,8.45,0,0,0,1.35.15v.07l.33-.05H72.37A8.75,8.75,0,0,0,74,474a8,8,0,0,0,6.75-7l5.79-49.36.26-2h0l2.29-19.54ZM76.53,441.4H69.68l.69-20.78H78.3ZM79,420.62h6.55L83.08,441.4H77.19ZM59.42,464.45,59,446.39h9.86l-.6,18.06ZM48.76,446.39h9.58l.41,18.06H50.17Zm.74,18.06h-8c-.76-4.88-1.75-11.21-2.83-18.06H48.1ZM48.37,441.4l-1.61-20.78h11l.48,20.78Zm10.52,0-.48-20.78h11.3L69,441.4Zm-.6-25.77-.44-19.25H70.52l-.64,19.25Zm-.66,0H46.37l-1.49-19.25H57.19Zm-11.92,0H33.8c-.42-2.66-.82-5.18-1.19-7.44-1.24-7.78-1.71-10.71-2-11.81H44.21Zm.39,5,1.61,20.78H37.86c-.33-2.11-.67-4.24-1-6.37-.77-4.91-1.55-9.82-2.27-14.41ZM37.19,441.4H30.76l-3.49-20.78h6.65C34.93,427,36.06,434.19,37.19,441.4Zm.78,5c1,6.25,2,12.41,2.83,18.06H34.62l-3-18.06Zm31,18.06.6-18.06H76.1l-1.54,18.06Zm1.62-48.82.64-19.25h9.19l-1.64,19.25ZM30,396.38c.27,1.39,1.49,9,3.12,19.25h-6.7L23.2,396.38Zm50.37,68.07H75.22l1.55-18.06H82.5Zm5.72-48.82H79.39L81,396.38h7.32Z" style="fill:#e0e0e0"></path><path d="M384.61,378.87a34,34,0,0,0-14.55-5c-2.38-.25-5-.18-6.89,1.26a1.44,1.44,0,0,0-.71,1.26,1.55,1.55,0,0,0,.68.86c5.92,4.52,14.87,5.09,21.47,1.63" style="fill:#e0e0e0"></path><path d="M384.23,378.45a71,71,0,0,1-9.39-8.26,23.79,23.79,0,0,1-5.9-10.9,4.41,4.41,0,0,1,.47-3.65c7.49,5.85,13.37,13.42,14.82,22.81" style="fill:#e0e0e0"></path><path d="M384.53,378.81a33.89,33.89,0,0,1,.17-12.34,16.67,16.67,0,0,1,6.57-10.18c1.3,3,.74,6.51-.17,9.67a46.91,46.91,0,0,1-6.52,13.72" style="fill:#e0e0e0"></path><path d="M391.87,392c-4.46.54-8.34,2.89-11.67,5.9a22.09,22.09,0,0,0-6.67,11.46c4.37-.27,8.08-3.35,10.77-6.81s4.56-7.25,7.51-10.48" style="fill:#e0e0e0"></path><path d="M393.47,394.07a28.78,28.78,0,0,1,3.32-27.22c2.54,9,1.61,19.24-3.32,27.22" style="fill:#e0e0e0"></path><path d="M403.17,405.63a20.8,20.8,0,0,0-19.9,11.45,1.53,1.53,0,0,0-.13,1.56,1.49,1.49,0,0,0,1.32.39c3.92-.26,7.39-2.62,10.26-5.3s5.37-5.79,8.54-8.12" style="fill:#e0e0e0"></path><path d="M402.86,405a37,37,0,0,1-.37-20.7c.73-2.67,1.95-5.47,4.42-6.72a.81.81,0,0,1,.67-.12.91.91,0,0,1,.43.49,12.43,12.43,0,0,1,1,5.94,37,37,0,0,1-.93,6c-.77,3.68-1.19,7.63-3.2,10.8a20.78,20.78,0,0,0-1.28,2.37c-.39.8-.39,1.09-.74,1.73" style="fill:#e0e0e0"></path><path d="M428.54,408.82c-1.9-7.24.12-16,4.68-21.94.34-.44.78-.91,1.33-.86.84.08,1.06,1.2,1,2a39.63,39.63,0,0,1-7,20.76" style="fill:#e0e0e0"></path><path d="M430.86,410.41a32,32,0,0,0,26.19-5.33,21.14,21.14,0,0,0-14.18-1.74c-4.73,1.08-9.06,3.2-12,7.07" style="fill:#e0e0e0"></path><path d="M432.81,405.59c4.93-8,14.37-13.27,23.77-13.75-1.08,3.83-4.22,6.8-7.77,8.6s-7.51,2.58-11.41,3.33c-1.52.3-3.6.62-4.59,1.82" style="fill:#e0e0e0"></path><path d="M429,382.2a68.28,68.28,0,0,0,3-13.92c.37-4.75-.31-9.7-2.77-13.77-4.6,8.9-5.07,19.3-.41,28.17" style="fill:#e0e0e0"></path><path d="M444.52,374.37c5.38-9.77,16.36-17.58,27.46-18.68-4.28,10.67-16,18.91-27.46,18.68" style="fill:#e0e0e0"></path><path d="M441.14,376.29c8,1.22,14.85,6.35,22.35,9.45a10,10,0,0,0,5.06,1,4,4,0,0,0,2.47-7,10.93,10.93,0,0,0-3.67-2.23c-8.16-3.4-16.92-3.48-25.52-1.42" style="fill:#e0e0e0"></path><path d="M436.49,381.92c1.82.52,2.44,1.46,3.88,2.68a41.81,41.81,0,0,0,16.95,8.71c.65.16,1.5.23,1.82-.36s-.08-1.13-.44-1.58a23.2,23.2,0,0,0-10.24-6.95c-3.91-1.46-7.3-3.22-12-2.84" style="fill:#e0e0e0"></path><path d="M431.25,347.93a32.09,32.09,0,0,0,24.6,8.37,1.67,1.67,0,0,0,1.12-.4c.62-.68-.12-1.72-.84-2.28-7.24-5.64-16-8-24.88-5.69" style="fill:#e0e0e0"></path><path d="M437.46,345.66a34.3,34.3,0,0,1,30.7-5.07A24.37,24.37,0,0,1,453.53,347a46.36,46.36,0,0,1-16.07-1.35" style="fill:#e0e0e0"></path><path d="M435,330c-.71-7.22-.25-12.92-.75-20.17,0-.58-.17-1.28-.71-1.49-.76-.29-1.38.64-1.63,1.41A23.1,23.1,0,0,0,435,329.88" style="fill:#e0e0e0"></path><path d="M434.48,330.84a42.41,42.41,0,0,0,11.95-11.63c2.37-3.23,4.36-7.1,3.82-11.06a11.44,11.44,0,0,0-8.63,4.28,24.22,24.22,0,0,0-4.39,8.84c-1,3.18-1.63,6.44-2.75,9.57" style="fill:#e0e0e0"></path><path d="M446.22,327.57a96.44,96.44,0,0,0,29.43-17.35c-3.51-1.42-7.54-.57-11,.85a34.86,34.86,0,0,0-18.53,16.42" style="fill:#e0e0e0"></path><path d="M437.78,334.78c5.43.6,11,1,16.34.08s10.3-3,15.25-5.06a1.82,1.82,0,0,0,1-.79,1.19,1.19,0,0,0-.37-1.31,3.24,3.24,0,0,0-1.3-.61c-5.38-1.5-11.19-.8-16.49,1a77.5,77.5,0,0,0-14.47,6.7" style="fill:#e0e0e0"></path><path d="M406.76,348.18c-3.7-7.48-3.46-16.21-.26-23.93,2.25,3.44,2.53,7.81,2.11,11.9s-1.65,8.29-1.73,12.4" style="fill:#e0e0e0"></path><path d="M392,340.71a33.39,33.39,0,0,0-24.8,10.56c4.62.73,9.38-.47,13.58-2.52A69.39,69.39,0,0,0,392.37,341" style="fill:#e0e0e0"></path><path d="M382,337.38c-4.52-.37-8.88-.93-13.23.41a15.87,15.87,0,0,0-10.09,8.55A24,24,0,0,0,371.09,344,71.44,71.44,0,0,0,382,337.38" style="fill:#e0e0e0"></path><path d="M396.74,337.53c-4.07-2.67-8.25-5.38-13-6.49s-10.23-.29-13.54,3.29c3.84,2.25,8.5,2.52,12.95,2.51s9.9,0,14.1,1.43" style="fill:#e0e0e0"></path><path d="M396.76,337.75c-7-6.84-9.6-19.12-6.8-28.47a43.31,43.31,0,0,1,6.8,28.47" style="fill:#e0e0e0"></path><path d="M415.91,318.38c1.31-3.05,2.23-6.26,3.41-9.37a27,27,0,0,1,4.87-8.63,12.87,12.87,0,0,1,8.62-4.47,34.7,34.7,0,0,1-16.73,22.52" style="fill:#e0e0e0"></path><path d="M412.44,322.41c-2.17-3-4.68-7.05-7.63-9.28s-6.78-3.58-10.37-2.72a24.15,24.15,0,0,0,18,12" style="fill:#e0e0e0"></path><path d="M413.14,318.63a51.57,51.57,0,0,1-3.44-11.13,17.44,17.44,0,0,1,1.74-11.31c3.83,7.23,5.06,15,1.89,22.52" style="fill:#e0e0e0"></path><path d="M415.94,296.19c2.17-7.16,8.73-12.43,15.8-14.85a5.92,5.92,0,0,1,2.78-.41,2.4,2.4,0,0,1,2,1.7c.26,1.22-.75,2.31-1.7,3.12a53.72,53.72,0,0,1-18.92,10.44" style="fill:#e0e0e0"></path><path d="M416,290.34c.28-4.62.56-9.3,2.07-13.68s4.39-8.48,8.6-10.39c.72,4.66-1.34,9.3-3.82,13.31s-5.47,7.8-7,12.28" style="fill:#e0e0e0"></path><path d="M415.91,293.52c-1.79-5.22-2-11.85-5.1-16.4-2.19-3.18-5.68-5.34-7.57-8.71a13.29,13.29,0,0,0,.44,9.89,28.58,28.58,0,0,0,5.79,8.28c2.31,2.47,4.29,4.32,6.44,6.94" style="fill:#e0e0e0"></path><path d="M415.94,447.21c-.14,0-.26-34.81-.27-77.75s.1-77.76.24-77.76.26,34.81.27,77.76S416.08,447.21,415.94,447.21Z" style="fill:#e0e0e0"></path><path d="M446.37,342.92a6.61,6.61,0,0,1-1.31.49l-3.6,1.22c-3,1-7.21,2.53-11.74,4.39s-8.72,3.48-11.12,5.57a8.13,8.13,0,0,0-2.24,3c-.34.81-.41,1.31-.45,1.31s0-.13,0-.37a5.34,5.34,0,0,1,.26-1,7.84,7.84,0,0,1,2.18-3.16,19.61,19.61,0,0,1,4.83-3c1.93-.9,4.07-1.84,6.34-2.78,4.54-1.86,8.74-3.31,11.82-4.26,1.53-.48,2.78-.83,3.65-1.06A8,8,0,0,1,446.37,342.92Z" style="fill:#e0e0e0"></path><path d="M456.34,318.43a2.36,2.36,0,0,1-.37.39l-1.11,1.05-4.17,3.79L436.8,336c-5.41,4.82-10.1,9.43-13.34,12.9-1.63,1.73-2.91,3.17-3.78,4.17l-1,1.15c-.23.26-.36.39-.38.38a2.43,2.43,0,0,1,.3-.44c.21-.28.52-.7.94-1.22.83-1,2.07-2.51,3.67-4.28a174,174,0,0,1,13.27-13c5.44-4.81,10.39-9.13,14-12.25l4.28-3.67,1.18-1C456.18,318.52,456.33,318.41,456.34,318.43Z" style="fill:#e0e0e0"></path><path d="M431,340.92c-.14-.06,1-2.68,2.12-6s1.68-6.1,1.82-6.07a20.53,20.53,0,0,1-1.34,6.23,39.19,39.19,0,0,1-1.69,4.18A6,6,0,0,1,431,340.92Z" style="fill:#e0e0e0"></path><path d="M416,362a6.57,6.57,0,0,1-.83-1L413,358.28c-1.8-2.32-4.28-5.53-7.06-9s-5.35-6.65-7.2-8.93l-2.19-2.7a6.06,6.06,0,0,1-.75-1,7.09,7.09,0,0,1,.9.91c.56.6,1.35,1.49,2.31,2.6,1.92,2.22,4.53,5.34,7.32,8.85s5.23,6.76,7,9.14c.86,1.19,1.55,2.16,2,2.84A6,6,0,0,1,416,362Z" style="fill:#e0e0e0"></path><path d="M409.3,353.43a12.23,12.23,0,0,1-2.79-5.23,14.76,14.76,0,0,1-.63-5.28l.22,0c-.1.4-.17.62-.21.61s-.05-.23,0-.65l.22,0a23.75,23.75,0,0,0,.89,5.13A40.44,40.44,0,0,0,409.3,353.43Z" style="fill:#e0e0e0"></path><path d="M400.69,342.6a8.73,8.73,0,0,0-1.95-1.14,13.19,13.19,0,0,0-5.42-.43,33.35,33.35,0,0,0-5.45.88,16.92,16.92,0,0,1-2.25.54,7.75,7.75,0,0,1,2.15-.88,24.93,24.93,0,0,1,5.51-1,11.83,11.83,0,0,1,5.59.6A3.4,3.4,0,0,1,400.69,342.6Z" style="fill:#e0e0e0"></path><path d="M398.65,340c0,.08-1.14-.46-3-1.09a31,31,0,0,0-7.46-1.53,30.37,30.37,0,0,0-7.6.38c-1.93.35-3.1.71-3.12.63s.27-.16.79-.34a17.46,17.46,0,0,1,2.26-.64,26.48,26.48,0,0,1,15.25,1.17,18.92,18.92,0,0,1,2.14,1A2.86,2.86,0,0,1,398.65,340Z" style="fill:#e0e0e0"></path><path d="M415.91,328.87a61.31,61.31,0,0,1-2.18-7.58A60.26,60.26,0,0,1,412,313.6a62.24,62.24,0,0,1,2.18,7.57A62.33,62.33,0,0,1,415.91,328.87Z" style="fill:#e0e0e0"></path><path d="M416.05,328.87a36.85,36.85,0,0,0-2.42-4.54,19.88,19.88,0,0,0-3.56-3.67,3.46,3.46,0,0,1,1.38.71A11.42,11.42,0,0,1,414,324,10.17,10.17,0,0,1,416.05,328.87Z" style="fill:#e0e0e0"></path><path d="M415.94,428.65c-.05,0-.15-.83-.55-2.31a32.08,32.08,0,0,0-2.32-6c-2.41-4.92-6.78-11.15-12.35-17.39-2.75-3.15-5.43-6.12-7.7-9a63,63,0,0,1-5.5-7.94,38.26,38.26,0,0,1-2.78-5.9c-.26-.72-.44-1.29-.55-1.68a2.52,2.52,0,0,1-.14-.6c.05,0,.3.79.87,2.21a43.64,43.64,0,0,0,2.91,5.79,65.52,65.52,0,0,0,5.56,7.83c2.27,2.81,4.95,5.76,7.71,8.92,5.58,6.26,9.95,12.57,12.29,17.57a29.72,29.72,0,0,1,2.19,6.13,15.36,15.36,0,0,1,.31,1.75A2.55,2.55,0,0,1,415.94,428.65Z" style="fill:#e0e0e0"></path><path d="M443.44,397.6a13.75,13.75,0,0,1-1.44.81,31.09,31.09,0,0,0-3.74,2.47,43.17,43.17,0,0,0-4.91,4.48c-1.72,1.82-3.5,3.93-5.31,6.19-3.62,4.55-7,8.57-9,11.78-1,1.59-1.78,2.93-2.27,3.87a11.54,11.54,0,0,1-.8,1.45,1.77,1.77,0,0,1,.14-.41c.1-.25.25-.64.48-1.12a37.84,37.84,0,0,1,2.14-4c2-3.29,5.33-7.36,8.95-11.9,1.81-2.27,3.61-4.39,5.37-6.2a39.67,39.67,0,0,1,5-4.45,26.55,26.55,0,0,1,3.86-2.35c.48-.24.87-.39,1.13-.5S443.43,397.58,443.44,397.6Z" style="fill:#e0e0e0"></path><path d="M444,407.67a19.33,19.33,0,0,1-3,.45,39.45,39.45,0,0,0-7.22,1.42,21.75,21.75,0,0,0-6.47,3.39c-1.49,1.16-2.19,2.11-2.26,2.05s.12-.27.45-.7a10.93,10.93,0,0,1,1.58-1.62,19.66,19.66,0,0,1,6.54-3.6,32.82,32.82,0,0,1,7.34-1.3A17.24,17.24,0,0,1,444,407.67Z" style="fill:#e0e0e0"></path><path d="M425.86,413.88c-.15-.09,1.22-2.19,2.28-5s1.24-5.34,1.42-5.31a4.93,4.93,0,0,1-.06,1.63,18,18,0,0,1-.88,3.85,18.86,18.86,0,0,1-1.77,3.53A4.88,4.88,0,0,1,425.86,413.88Z" style="fill:#e0e0e0"></path><path d="M452.34,370.55a1.77,1.77,0,0,1-.49.26l-1.43.65c-.63.27-1.39.61-2.24,1.07s-1.87.9-2.91,1.52l-1.66.95c-.58.33-1.15.72-1.76,1.1-1.22.75-2.45,1.66-3.76,2.6a69.9,69.9,0,0,0-7.85,6.9,71.49,71.49,0,0,0-6.64,8.09c-.88,1.34-1.76,2.59-2.46,3.84-.36.62-.73,1.21-1,1.79l-.89,1.7c-.59,1.06-1,2.08-1.43,3s-.73,1.64-1,2.28-.44,1.07-.6,1.45a2.59,2.59,0,0,1-.25.5,3.06,3.06,0,0,1,.15-.53l.52-1.49c.22-.65.5-1.44.9-2.33s.8-1.92,1.37-3l.87-1.72c.3-.6.67-1.19,1-1.82.69-1.26,1.56-2.54,2.44-3.9a68.35,68.35,0,0,1,6.66-8.17,67.22,67.22,0,0,1,7.94-6.93c1.32-.93,2.57-1.84,3.81-2.57.61-.37,1.19-.76,1.78-1.09l1.69-.92c1.06-.61,2.08-1.05,3-1.47s1.64-.74,2.29-1l1.47-.56A3.22,3.22,0,0,1,452.34,370.55Z" style="fill:#e0e0e0"></path><path d="M430.58,385.13a3.58,3.58,0,0,1,1.2-1.78,7.52,7.52,0,0,1,4.82-1.85,13.23,13.23,0,0,1,5.07,1,7.61,7.61,0,0,1,1.92.93,11.56,11.56,0,0,1-2-.59,15.31,15.31,0,0,0-4.94-.83,7.84,7.84,0,0,0-4.6,1.62A13.78,13.78,0,0,0,430.58,385.13Z" style="fill:#e0e0e0"></path><path d="M427.33,388.49A18.34,18.34,0,0,0,428.7,384a17.9,17.9,0,0,0-.31-4.64c.06,0,.33.45.57,1.29a9.24,9.24,0,0,1-.78,6.68C427.75,388.13,427.38,388.52,427.33,388.49Z" style="fill:#e0e0e0"></path><path d="M391.9,433.64c.75,13.31,4.76,26.84,10.92,40.52h26.82c5.88-13.55,9.62-27.06,10.28-40.52Z" style="fill:#e0e0e0"></path><path d="M435.57,455.17c0,.14-8.83.25-19.72.25s-19.72-.11-19.72-.25,8.83-.25,19.72-.25S435.57,455,435.57,455.17Z" style="fill:#fafafa"></path><path d="M435,460c0,.14-8.27.25-18.48.25S398,460.13,398,460s8.27-.25,18.49-.25S435,459.85,435,460Z" style="fill:#fafafa"></path><path d="M403.26,442.38a76.39,76.39,0,0,1,0,12.35,76.39,76.39,0,0,1,0-12.35Z" style="fill:#fafafa"></path><path d="M417.63,442.38a81.92,81.92,0,0,1,0,12.79,78.78,78.78,0,0,1,0-12.79Z" style="fill:#fafafa"></path><path d="M431.11,442.27a82,82,0,0,1,0,13.05,85.28,85.28,0,0,1,0-13.05Z" style="fill:#fafafa"></path><path d="M439.07,442.38c0,.14-10.36.25-23.13.25s-23.13-.11-23.13-.25,10.35-.25,23.13-.25S439.07,442.24,439.07,442.38Z" style="fill:#fafafa"></path><rect x="369.78" y="38.43" width="97.4" height="87.14" style="fill:#fafafa"></rect><path d="M467.18,125.57s0-.56,0-1.62,0-2.63,0-4.67c0-4.09,0-10.07-.06-17.69,0-15.22-.07-37-.11-63.16l.22.22-97.39,0h0l.26-.26c0,31.7,0,61.53,0,87.14l-.23-.23,70.45.11,19.86.06,5.26,0h1.36l.47,0h-1.77l-5.22,0-19.82.06-70.59.11h-.23v-.23c0-25.61,0-55.44,0-87.14v-.26h.27l97.39,0h.22v.22c0,26.24-.09,48-.11,63.3,0,7.6-.05,13.56-.06,17.64,0,2,0,3.57,0,4.63S467.18,125.57,467.18,125.57Z" style="fill:#e0e0e0"></path><path d="M407.13,53.91c0,.15-5.13.26-11.45.26s-11.45-.11-11.45-.26,5.12-.26,11.45-.26S407.13,53.77,407.13,53.91Z" style="fill:#e0e0e0"></path><path d="M448.4,60.45c0,.15-14.09.27-31.46.27s-31.45-.12-31.45-.27,14.08-.26,31.45-.26S448.4,60.31,448.4,60.45Z" style="fill:#e0e0e0"></path><rect x="384.4" y="71.54" width="4.1" height="4.1" style="fill:#e0e0e0"></rect><rect x="394.5" y="71.54" width="4.1" height="4.1" style="fill:#e0e0e0"></rect><rect x="404.78" y="71.35" width="4.1" height="4.1" style="fill:#e0e0e0"></rect><rect x="414.7" y="71.54" width="4.1" height="4.1" style="fill:#e0e0e0"></rect><rect x="424.8" y="71.54" width="4.1" height="4.1" style="fill:#e0e0e0"></rect><rect x="434.9" y="71.54" width="4.1" height="4.1" style="fill:#e0e0e0"></rect><rect x="445" y="71.54" width="4.1" height="4.1" style="fill:#ebebeb"></rect><rect x="384.4" y="80.26" width="4.1" height="4.1" style="fill:#ebebeb"></rect><rect x="394.5" y="80.26" width="4.1" height="4.1" style="fill:#e0e0e0"></rect><rect x="404.6" y="80.26" width="4.1" height="4.1" style="fill:#ebebeb"></rect><rect x="414.7" y="80.26" width="4.1" height="4.1" style="fill:#e0e0e0"></rect><rect x="424.8" y="80.26" width="4.1" height="4.1" style="fill:#e0e0e0"></rect><rect x="435.08" y="80.07" width="4.1" height="4.1" style="fill:#e0e0e0"></rect><rect x="445" y="80.26" width="4.1" height="4.1" style="fill:#e0e0e0"></rect><rect x="384.4" y="88.98" width="4.1" height="4.1" style="fill:#e0e0e0"></rect><rect x="394.68" y="88.8" width="4.1" height="4.1" style="fill:#e0e0e0"></rect><rect x="404.6" y="88.98" width="4.1" height="4.1" style="fill:#e0e0e0"></rect><rect x="414.7" y="88.98" width="4.1" height="4.1" style="fill:#ebebeb"></rect><rect x="424.8" y="88.98" width="4.1" height="4.1" style="fill:#e0e0e0"></rect><rect x="434.9" y="88.98" width="4.1" height="4.1" style="fill:#e0e0e0"></rect><rect x="445" y="88.98" width="4.1" height="4.1" style="fill:#e0e0e0"></rect><rect x="384.4" y="97.71" width="4.1" height="4.1" style="fill:#e0e0e0"></rect><rect x="394.5" y="97.71" width="4.1" height="4.1" style="fill:#e0e0e0"></rect><rect x="404.6" y="97.71" width="4.1" height="4.1" style="fill:#e0e0e0"></rect><rect x="414.88" y="97.52" width="4.1" height="4.1" style="fill:#e0e0e0"></rect><rect x="424.8" y="97.71" width="4.1" height="4.1" style="fill:#e0e0e0"></rect><rect x="434.9" y="97.71" width="4.1" height="4.1" style="fill:#ebebeb"></rect><rect x="445" y="97.71" width="4.1" height="4.1" style="fill:#e0e0e0"></rect><rect x="384.4" y="106.43" width="4.1" height="4.1" style="fill:#e0e0e0"></rect><rect x="394.5" y="106.43" width="4.1" height="4.1" style="fill:#ebebeb"></rect><rect x="404.6" y="106.43" width="4.1" height="4.1" style="fill:#e0e0e0"></rect><rect x="414.7" y="106.43" width="4.1" height="4.1" style="fill:#e0e0e0"></rect><rect x="424.8" y="106.43" width="4.1" height="4.1" style="fill:#e0e0e0"></rect><rect x="435.08" y="106.24" width="4.1" height="4.1" style="fill:#e0e0e0"></rect><rect x="445" y="106.43" width="4.1" height="4.1" style="fill:#e0e0e0"></rect><polygon points="36.98 35.9 100.88 35.9 100.88 128.55 37.41 128.55 36.98 35.9" style="fill:#e0e0e0"></polygon><rect x="32.19" y="36.34" width="63.32" height="91.78" transform="translate(127.69 164.45) rotate(180)" style="fill:#fff"></rect><path d="M95.94,35.9v92.65H31.75V35.9Zm-.87,91.78V36.77H32.62v90.91Z" style="fill:#e0e0e0"></path><rect x="40.05" y="46.28" width="47.59" height="71.9" style="fill:#fff"></rect><path d="M40.05,46.28s0,.12,0,.35,0,.58,0,1c0,.91,0,2.23,0,3.94,0,3.46,0,8.48.06,14.82,0,12.68.06,30.63.1,51.76l-.21-.21,47.58,0h0l-.23.23c0-27.13,0-52.13,0-71.9l.18.18L53,46.36l-9.58,0-2.51,0-.88,0,.84,0,2.48,0,9.53-.05,34.74-.09h.18v.18c0,19.77,0,44.77,0,71.9v.22h-.23l-47.58,0h-.21v-.2c0-21.19.08-39.18.11-51.9C40,60,40,55,40,51.51c0-1.69,0-3,0-3.9,0-.43,0-.76,0-1S40.05,46.28,40.05,46.28Z" style="fill:#e0e0e0"></path><path d="M32,128.12a7.47,7.47,0,0,1,1-1.58c.68-.94,1.64-2.22,2.74-3.6s2.15-2.59,2.94-3.45a7.78,7.78,0,0,1,1.34-1.31c.1.08-1.72,2.29-3.92,5A51.48,51.48,0,0,1,32,128.12Z" style="fill:#e0e0e0"></path><path d="M32.19,36.34a45.87,45.87,0,0,1,4.11,4.83,43.41,43.41,0,0,1,3.75,5.11,44.38,44.38,0,0,1-4.11-4.83A44.39,44.39,0,0,1,32.19,36.34Z" style="fill:#e0e0e0"></path><path d="M95.51,36.41,87.22,46.64" style="fill:#fff"></path><path d="M87.22,46.64a47.88,47.88,0,0,1,4-5.26,49.56,49.56,0,0,1,4.32-5,47.88,47.88,0,0,1-4,5.26A46.83,46.83,0,0,1,87.22,46.64Z" style="fill:#e0e0e0"></path><path d="M95.5,128.12a45.94,45.94,0,0,1-4.06-4.78,43.84,43.84,0,0,1-3.72-5.06,42.88,42.88,0,0,1,4.07,4.78A42,42,0,0,1,95.5,128.12Z" style="fill:#e0e0e0"></path><path d="M66.91,83.28H58.54l-1,2.3a5.29,5.29,0,0,0-.49,1.91A1.59,1.59,0,0,0,57.86,89a7.08,7.08,0,0,0,2.32.42V90H52.3v-.64a3.53,3.53,0,0,0,2.1-1.06,14.27,14.27,0,0,0,2-3.58L64.9,65.83h.33l8.55,19.44a12.11,12.11,0,0,0,2,3.48,2.79,2.79,0,0,0,1.68.63V90H66v-.64h.48A3.57,3.57,0,0,0,68.42,89a.93.93,0,0,0,.38-.8,2.14,2.14,0,0,0-.1-.65c0-.1-.2-.54-.53-1.31ZM66.32,82l-3.53-8.16L59.15,82Z" style="fill:#e0e0e0"></path></g><g id="freepik--Floor--inject-27"><path d="M467.13,474.16c0,.14-99,.26-221.12.26s-221.14-.12-221.14-.26,99-.26,221.14-.26S467.13,474,467.13,474.16Z" style="fill:#263238"></path></g><g id="freepik--Artboard--inject-27"><rect x="124.52" y="44.68" width="217.99" height="200.09" style="fill:#fff"></rect><path d="M184.37,191.14a30.24,30.24,0,0,0,.68,4.51,18,18,0,0,0,2.07,4.89,18.46,18.46,0,0,0,4.69,5.2,18.22,18.22,0,0,0,7.73,3.41,18.41,18.41,0,0,0,9.62-.81,17.22,17.22,0,0,0,4.63-2.5,16.25,16.25,0,0,0,3.87-3.89,18.19,18.19,0,0,0,0-21.62,21.55,21.55,0,0,0-1.79-2.12,19.28,19.28,0,0,0-2.08-1.77,17.22,17.22,0,0,0-4.63-2.5,18.41,18.41,0,0,0-22,7.8,18,18,0,0,0-2.07,4.9,30.23,30.23,0,0,0-.68,4.5s0-.1,0-.3,0-.52,0-.88a9.15,9.15,0,0,1,.12-1.44,12.78,12.78,0,0,1,.36-1.93,17.44,17.44,0,0,1,2-5,18.71,18.71,0,0,1,12.59-8.88,18.83,18.83,0,0,1,9.87.78,17.84,17.84,0,0,1,4.76,2.55,21.25,21.25,0,0,1,2.13,1.81,20.46,20.46,0,0,1,1.85,2.18,18.67,18.67,0,0,1,0,22.23,20.35,20.35,0,0,1-1.85,2.17,20,20,0,0,1-2.13,1.81,17.56,17.56,0,0,1-4.76,2.55,18.73,18.73,0,0,1-9.87.78,18.71,18.71,0,0,1-12.59-8.88,17.5,17.5,0,0,1-2-5,12.88,12.88,0,0,1-.36-1.94,9,9,0,0,1-.12-1.43c0-.37,0-.66,0-.89S184.37,191.14,184.37,191.14Z" style="fill:#e0e0e0"></path><path d="M282,148.11s0-.21-.06-.63-.07-1-.12-1.85c0-.41-.05-.86-.08-1.36s-.16-1-.25-1.63-.19-1.22-.3-1.9a20.33,20.33,0,0,0-.51-2.13,37.35,37.35,0,0,0-4.32-10.34,38.76,38.76,0,0,0-9.88-11L264.8,116c-.59-.39-1.21-.74-1.83-1.12s-1.22-.79-1.89-1.09l-2-1-1-.48-1.08-.4-2.18-.79c-.74-.25-1.52-.41-2.29-.61a18.06,18.06,0,0,0-2.34-.53,36,36,0,0,0-4.91-.57c-.84,0-1.68-.11-2.53-.1l-2.56.13c-.43,0-.87,0-1.3.09l-1.29.2c-.87.14-1.74.24-2.61.42a42.83,42.83,0,0,0-10.23,3.74c-.82.45-1.6,1-2.41,1.44-.4.26-.82.47-1.2.76L220,117a44.08,44.08,0,0,0-4.4,3.73,45.85,45.85,0,0,0-3.8,4.5l-.89,1.19-.78,1.27-.78,1.29a9.36,9.36,0,0,0-.72,1.32L207.28,133c-.34,1-.7,1.91-1.05,2.87a38.39,38.39,0,0,0,0,24.46l1.05,2.87L208.6,166l.33.67.39.65.78,1.28.78,1.28.89,1.19a44.58,44.58,0,0,0,3.8,4.49,41.85,41.85,0,0,0,4.4,3.74l1.14.86c.38.29.8.5,1.2.76.81.48,1.59,1,2.41,1.44a41.77,41.77,0,0,0,5.06,2.22,40.59,40.59,0,0,0,5.17,1.52c.87.18,1.74.28,2.61.42l1.29.2c.43.06.87.06,1.3.09l2.56.13c.85,0,1.7-.07,2.53-.1a36,36,0,0,0,4.91-.57,18.59,18.59,0,0,0,2.35-.53c.76-.21,1.54-.36,2.28-.61l2.19-.79,1.07-.4,1-.48,2-1c.68-.3,1.27-.74,1.9-1.09s1.23-.74,1.82-1.12l1.68-1.25a38.74,38.74,0,0,0,9.88-11,37.27,37.27,0,0,0,4.32-10.35,19.6,19.6,0,0,0,.51-2.12c.11-.68.21-1.31.3-1.9s.2-1.13.25-1.63.06-1,.08-1.36c.05-.8.09-1.42.12-1.85s.06-.64.06-.64,0,.22,0,.64,0,1.05-.06,1.85c0,.41,0,.87-.06,1.37s-.14,1.05-.22,1.64-.18,1.23-.28,1.91a21.61,21.61,0,0,1-.49,2.14,36.91,36.91,0,0,1-4.27,10.45,38.68,38.68,0,0,1-9.91,11.16L265,180.54c-.59.39-1.22.75-1.83,1.14s-1.23.8-1.91,1.11l-2,1-1,.5-1.09.4-2.2.81c-.75.25-1.53.41-2.31.62a20.42,20.42,0,0,1-2.37.55,38.19,38.19,0,0,1-5,.59c-.85,0-1.7.11-2.56.1l-2.6-.13c-.43,0-.87,0-1.31-.08l-1.31-.2c-.87-.14-1.76-.24-2.64-.42a42.13,42.13,0,0,1-5.24-1.53,41.18,41.18,0,0,1-5.12-2.24c-.83-.45-1.63-1-2.45-1.46-.4-.25-.83-.47-1.21-.76l-1.16-.87a44,44,0,0,1-4.46-3.78,44.47,44.47,0,0,1-3.85-4.55l-.9-1.21-.8-1.29-.79-1.3-.39-.65-.34-.69c-.44-.92-.89-1.84-1.33-2.77s-.71-1.93-1.07-2.91a38.83,38.83,0,0,1,0-24.78l1.07-2.91,1.33-2.77a9.7,9.7,0,0,1,.74-1.34l.79-1.3.79-1.29.9-1.21a43.2,43.2,0,0,1,3.86-4.54,43.84,43.84,0,0,1,4.45-3.78l1.16-.87c.38-.29.81-.51,1.21-.76.83-.49,1.62-1,2.45-1.46a39.74,39.74,0,0,1,5.12-2.24,42.13,42.13,0,0,1,5.24-1.53c.88-.18,1.77-.28,2.64-.42l1.31-.2c.44-.06.88,0,1.31-.08l2.6-.13c.86,0,1.71.07,2.56.1a38.4,38.4,0,0,1,5,.59,21.38,21.38,0,0,1,2.37.54c.77.22,1.56.38,2.31.63l2.2.81,1.09.4,1,.5,2,1c.68.31,1.28.75,1.91,1.11s1.25.75,1.84,1.14L266.7,117a39,39,0,0,1,9.91,11.16,36.86,36.86,0,0,1,4.27,10.44c.17.76.41,1.46.49,2.15s.19,1.31.28,1.91.17,1.13.22,1.64,0,1,.06,1.36q0,1.22.06,1.86C282,147.9,282,148.11,282,148.11Z" style="fill:#e0e0e0"></path><path d="M332.55,148s0-.49-.07-1.45,0-2.39-.19-4.26A87.78,87.78,0,0,0,326.07,115a85.1,85.1,0,0,0-6.22-12.59A90.42,90.42,0,0,0,297.14,77a89,89,0,0,0-37.6-16.68,90.42,90.42,0,0,0-35,.41,94.63,94.63,0,0,0-11.93,3.4,89.49,89.49,0,0,0-41.5,31.12,87.5,87.5,0,0,0-7.27,11.71c-1.1,2-2,4.18-3,6.31s-1.75,4.35-2.46,6.6a87.75,87.75,0,0,0-3.4,13.8A98.05,98.05,0,0,0,153.83,148,96.72,96.72,0,0,0,155,162.38a86.75,86.75,0,0,0,3.39,13.81c.71,2.25,1.61,4.42,2.47,6.6s1.89,4.26,3,6.31a88,88,0,0,0,7.28,11.71,89.44,89.44,0,0,0,41.5,31.13,94.68,94.68,0,0,0,11.93,3.41,90.88,90.88,0,0,0,35,.4,89.12,89.12,0,0,0,37.6-16.68,90.22,90.22,0,0,0,22.7-25.38,86.2,86.2,0,0,0,6.23-12.59,88.55,88.55,0,0,0,6.22-27.37c.16-1.86.13-3.29.18-4.25s.07-1.45.07-1.45,0,.49,0,1.45,0,2.39-.14,4.26a88.95,88.95,0,0,1-12.3,40.1,90.6,90.6,0,0,1-22.73,25.53,89.39,89.39,0,0,1-37.74,16.81,91.19,91.19,0,0,1-35.17-.37,97.91,97.91,0,0,1-12-3.41,90,90,0,0,1-49.07-43.06c-1.1-2.06-2-4.21-3-6.35s-1.76-4.38-2.48-6.64a87.51,87.51,0,0,1-3.42-13.89A99.17,99.17,0,0,1,153.31,148a97.77,97.77,0,0,1,1.18-14.44,87.78,87.78,0,0,1,3.42-13.89c.71-2.26,1.61-4.44,2.48-6.63s1.91-4.29,3-6.34a89,89,0,0,1,7.32-11.78,89.93,89.93,0,0,1,41.74-31.27,94.49,94.49,0,0,1,12-3.41,91.16,91.16,0,0,1,35.16-.37,89.21,89.21,0,0,1,37.74,16.8,90.64,90.64,0,0,1,22.74,25.53,86.37,86.37,0,0,1,6.2,12.65,87.41,87.41,0,0,1,6.1,27.46c.15,1.86.1,3.3.14,4.26S332.55,148,332.55,148Z" style="fill:#e0e0e0"></path><path d="M306.93,210.7c-.1.1-28.52-28.14-63.45-63.08s-63.2-63.36-63.1-63.46,28.51,28.14,63.46,63.09S307,210.6,306.93,210.7Z" style="fill:#e0e0e0"></path><path d="M306.33,84.76c.1.1-28.15,28.51-63.08,63.45s-63.36,63.19-63.46,63.09,28.14-28.51,63.09-63.46S306.23,84.65,306.33,84.76Z" style="fill:#e0e0e0"></path><path d="M243.65,58c.15,0,.27,40.07.27,89.48s-.12,89.48-.26,89.48-.26-40.06-.26-89.48S243.51,58,243.65,58Z" style="fill:#e0e0e0"></path><path d="M154.18,148c0-.14,40.07-.26,89.47-.26s89.49.11,89.49.25-40.06.27-89.49.27S154.18,148.17,154.18,148Z" style="fill:#e0e0e0"></path><path d="M241.16,59.29V84.76c0,3.21,5,3.22,5,0V59.29c0-3.22-5-3.22-5,0Z" style="fill:#92E3A9"></path><path d="M271.74,148.34s0-.15-.05-.46-.05-.78-.09-1.36c0-.31,0-.64-.07-1s-.12-.77-.18-1.2a20,20,0,0,0-.61-3,27.49,27.49,0,0,0-3.19-7.62,28.54,28.54,0,0,0-34.28-12.17,29,29,0,0,0-3.72,1.64c-.6.32-1.17.71-1.77,1.06a15.4,15.4,0,0,0-1.72,1.18,33.54,33.54,0,0,0-3.23,2.75,33.07,33.07,0,0,0-2.8,3.31,27.75,27.75,0,0,0-4.07,7.85,28.22,28.22,0,0,0,0,18,27.68,27.68,0,0,0,4.07,7.86,34.23,34.23,0,0,0,2.79,3.3,32.08,32.08,0,0,0,3.24,2.75,14.25,14.25,0,0,0,1.72,1.19c.59.35,1.17.73,1.77,1.06a30.5,30.5,0,0,0,3.72,1.64,28.68,28.68,0,0,0,15,1.25A28.75,28.75,0,0,0,267.55,163a27.32,27.32,0,0,0,3.19-7.61,20.31,20.31,0,0,0,.61-3c.06-.44.14-.83.18-1.2s.05-.7.07-1c0-.58.07-1,.09-1.36s.05-.47.05-.47,0,.16,0,.47,0,.79-.05,1.37c0,.3,0,.64,0,1s-.1.77-.16,1.21a19.94,19.94,0,0,1-.56,3,27,27,0,0,1-3.14,7.71,28.85,28.85,0,0,1-19.47,13.7,25.6,25.6,0,0,1-3.66.44c-.62,0-1.25.08-1.89.08l-1.92-.1a12.77,12.77,0,0,1-1.93-.2c-.65-.11-1.3-.18-2-.32a30.35,30.35,0,0,1-3.87-1.12,31.57,31.57,0,0,1-3.79-1.66c-.61-.33-1.2-.71-1.81-1.07a15.61,15.61,0,0,1-1.75-1.21,30.75,30.75,0,0,1-3.29-2.79,31.79,31.79,0,0,1-2.85-3.36,28,28,0,0,1-4.15-8,28.69,28.69,0,0,1,0-18.31,27.85,27.85,0,0,1,4.15-8,26.92,26.92,0,0,1,6.14-6.16,16.06,16.06,0,0,1,1.76-1.2c.6-.36,1.19-.74,1.8-1.07A31.16,31.16,0,0,1,237,120c.65-.14,1.3-.21,2-.32a11.49,11.49,0,0,1,1.93-.2l1.92-.1c.64,0,1.27.06,1.89.08a25.78,25.78,0,0,1,3.66.44,28.85,28.85,0,0,1,19.47,13.7,26.84,26.84,0,0,1,3.14,7.71,19.94,19.94,0,0,1,.56,3c.06.44.13.84.16,1.21s0,.7,0,1c0,.58,0,1,.05,1.37S271.74,148.34,271.74,148.34Z" style="fill:#e0e0e0"></path><path d="M222.88,239.45a3,3,0,0,1,0-.71c0-.53,0-1.21-.05-2.06,0-1.84-.05-4.41-.08-7.56,0-6.44,0-15.23-.08-24.94s.06-18.51.08-25c0-3.15.06-5.71.08-7.56,0-.85,0-1.53.05-2a3.13,3.13,0,0,1,0-.72,3.13,3.13,0,0,1,.05.72c0,.52,0,1.2,0,2,0,1.85.05,4.41.08,7.56,0,6.44.05,15.23.08,25s-.06,18.5-.08,24.94c0,3.15-.06,5.72-.08,7.56,0,.85,0,1.53,0,2.06A3,3,0,0,1,222.88,239.45Z" style="fill:#e0e0e0"></path><path d="M233.07,239.45a3.39,3.39,0,0,1,0-.65c0-.48,0-1.1-.05-1.87,0-1.69-.05-4-.08-6.87,0-5.86,0-13.84-.08-22.66s.06-16.81.08-22.67c0-2.85.06-5.18.08-6.87,0-.76,0-1.38.05-1.86a3.26,3.26,0,0,1,0-.65,2.51,2.51,0,0,1,.05.65c0,.48,0,1.1,0,1.86,0,1.69.05,4,.09,6.87,0,5.86,0,13.85.07,22.67s-.05,16.8-.07,22.66c0,2.85-.07,5.18-.09,6.87,0,.77,0,1.39,0,1.87A2.59,2.59,0,0,1,233.07,239.45Z" style="fill:#e0e0e0"></path><path d="M263,239.45a3,3,0,0,1-.05-.71c0-.52,0-1.21-.05-2.06,0-1.84-.05-4.4-.09-7.55,0-6.42,0-15.2-.07-24.9s.06-18.49.07-24.92c0-3.14.07-5.7.09-7.55,0-.85,0-1.53.05-2A3,3,0,0,1,263,169a3.88,3.88,0,0,1,0,.71c0,.52,0,1.2.05,2,0,1.85.05,4.41.08,7.55,0,6.43,0,15.21.08,24.92s-.06,18.48-.08,24.9c0,3.15-.06,5.71-.08,7.55,0,.85,0,1.54-.05,2.06A3.88,3.88,0,0,1,263,239.45Z" style="fill:#e0e0e0"></path><path d="M253.62,239.45a3.26,3.26,0,0,1-.05-.65l0-1.88c0-1.69-.05-4-.08-6.9,0-5.88-.05-13.9-.08-22.76s.06-16.88.08-22.76c0-2.87.06-5.21.08-6.9,0-.77,0-1.39,0-1.88a3.26,3.26,0,0,1,.05-.65,2.51,2.51,0,0,1,0,.65c0,.49,0,1.11.05,1.88,0,1.69.05,4,.09,6.9,0,5.88,0,13.9.07,22.76s0,16.88-.07,22.76c0,2.87-.07,5.21-.09,6.9,0,.77,0,1.4-.05,1.88A2.51,2.51,0,0,1,253.62,239.45Z" style="fill:#e0e0e0"></path><path d="M218.8,138a26.33,26.33,0,0,1,6.78-9.2c.36-.33.72-.64,1.09-.95l.51-.41c.65-.53-.36.25.31-.24s1.51-1.07,2.3-1.55a24.69,24.69,0,0,1,2.32-1.26l.63-.28c-.48.2.19-.08.24-.09a12.71,12.71,0,0,1,1.23-.42,2.56,2.56,0,0,0,1.75-3.08,2.54,2.54,0,0,0-3.08-1.75,29.17,29.17,0,0,0-10.64,6.32,30.88,30.88,0,0,0-7.76,10.39,2.58,2.58,0,0,0,.9,3.42,2.52,2.52,0,0,0,3.42-.9Z" style="fill:#92E3A9"></path><path d="M243,106.6c-17.58.07-33.93,11.06-39.62,27.85-3,8.93-3.27,19.35.36,28.13a44.89,44.89,0,0,0,6.2,10.37,52,52,0,0,0,4.11,4.78,30.62,30.62,0,0,1,5,5.87,11.67,11.67,0,0,1,1.61,5.33c.1,2.26-.15,4.51-.18,6.76,0,2.42,0,4.84,0,7.25a2.53,2.53,0,0,0,2.5,2.5h40a2.53,2.53,0,0,0,2.5-2.5v-.68c0-3.22-5-3.23-5,0v.68l2.5-2.5h-40l2.5,2.5c0-2.26,0-4.51,0-6.77,0-3.41.49-6.8-.18-10.18-.94-4.8-4.36-8.46-7.69-11.8a46.09,46.09,0,0,1-6.88-8.85c-8.79-14.54-4.52-34.46,8.36-45.21A37.93,37.93,0,0,1,243,111.6c3.21,0,3.22-5,0-5Z" style="fill:#92E3A9"></path><path d="M278.68,142.5a40.82,40.82,0,0,1-.76,16.58A34.64,34.64,0,0,1,272,170.69c-2.22,2.93-5.49,5.78-8,8.81-2.81,3.43-3.43,7.38-3.54,11.71-.09,3.68,0,7.37,0,11,0,3.21,5,3.22,5,0,0-3,0-6,0-9,0-1.24,0-2.47.1-3.71a14.39,14.39,0,0,1,.34-2.87,10.31,10.31,0,0,1,.34-1.24c.06-.18.12-.36.19-.54-.2.51.08-.17.11-.22a10,10,0,0,1,1.36-2.05c2.78-3.19,5.86-6,8.42-9.43A38.58,38.58,0,0,0,282.57,161c1.92-6.47,1.87-13.24.93-19.87a2.5,2.5,0,0,0-3.07-1.74,2.56,2.56,0,0,0-1.75,3.07Z" style="fill:#92E3A9"></path><polygon points="301.53 154.67 296.06 158.28 294.5 155.97 299.95 152.38 301.53 154.67" style="fill:#263238"></polygon><path d="M288.72,141.45l4.86,6.67a1.35,1.35,0,1,1-.74.52l-4.24-6.89h0l.73,10.29,4.68,3.34,5.3-3.48-1.06-5.37Z" style="fill:#263238"></path><path d="M308.53,153.27,307,155.41v0l2.51-.43,0,1.14L307,156v0l1.67,1.94-1,.64-1.08-2.3h0l-1,2.4-1-.57L306.1,156v0l-2.46.41,0-1.14,2.47.23v0l-1.65-2,1-.62,1.12,2.28h0l.94-2.37Z" style="fill:#263238"></path><path d="M283.83,205.1s0-.16,0-.47,0-.78,0-1.37c0-1.22,0-3,0-5.32,0-4.66,0-11.45-.06-20.07,0-17.22-.07-41.73-.11-70.93l.23.23-82.33,0h0l.26-.26c0,36.26,0,70,0,98.16l-.22-.22,59.71.12,16.7.05,4.4,0,1.53,0-1.48,0-4.36,0-16.65.06-59.85.11h-.22v-.22c0-28.14,0-61.9,0-98.16v-.26h.27l82.33,0h.23v.24c-.05,29.26-.09,53.82-.12,71.08,0,8.6,0,15.37-.06,20,0,2.29,0,4.06,0,5.27,0,.58,0,1,0,1.35S283.83,205.1,283.83,205.1Z" style="fill:#263238"></path><rect x="199.95" y="105.09" width="3.15" height="3.15" style="fill:#fff"></rect><path d="M203.11,108.25a22.78,22.78,0,0,1-.23-3.16l.23.23c-.92,0-2,0-3.16,0,0,.06.5-.49.26-.26h0v.82c0,.28,0,.55,0,.82,0,.51,0,1,0,1.49L200,108a22.78,22.78,0,0,1,3.16.23,17.61,17.61,0,0,1-3.16.22h-.22v-.23c0-.48,0-1,0-1.49v-1.64h0c-.23.24.32-.31.26-.26,1.16,0,2.24,0,3.16,0h.23v.22A17.61,17.61,0,0,1,203.11,108.25Z" style="fill:#263238"></path><rect x="199.95" y="151.31" width="3.15" height="3.15" style="fill:#fff"></rect><path d="M203.11,154.46a22.72,22.72,0,0,1-.23-3.15l.23.22c-.92,0-2,0-3.16,0l.26-.26h0v.83c0,.27,0,.54,0,.81,0,.51,0,1,0,1.49l-.23-.23a22.78,22.78,0,0,1,3.16.23,17.61,17.61,0,0,1-3.16.22h-.22v-.23c0-.48,0-1,0-1.49v-1.64h0l.26-.26c1.16,0,2.24,0,3.16,0h.23v.22A17.55,17.55,0,0,1,203.11,154.46Z" style="fill:#263238"></path><rect x="199.95" y="203.34" width="3.15" height="3.15" style="fill:#fff"></rect><path d="M203.11,206.49a22.36,22.36,0,0,1-.23-3.15l.23.23c-.92,0-2,0-3.16,0,0,.06.5-.49.26-.26h0v.84c0,.28,0,.55,0,.82,0,.51,0,1,0,1.48l-.23-.22a26,26,0,0,1,3.16.22,16.86,16.86,0,0,1-3.16.23h-.22v-.24c0-.48,0-1,0-1.48v-1.66h0l.26-.26c1.16,0,2.24,0,3.16,0h.23v.22A17.27,17.27,0,0,1,203.11,206.49Z" style="fill:#263238"></path><rect x="241.48" y="204.24" width="3.15" height="3.15" style="fill:#fff"></rect><path d="M244.64,207.4a22.78,22.78,0,0,1-.23-3.16l.23.23c-.92,0-2,0-3.16,0,0,.06.5-.49.26-.26h0v.82c0,.28,0,.55,0,.82,0,.51,0,1,0,1.49l-.23-.23a22.78,22.78,0,0,1,3.16.23,17.61,17.61,0,0,1-3.16.22h-.22v-.23c0-.48,0-1,0-1.49v-1.64h0c-.23.24.32-.31.26-.26,1.16,0,2.24,0,3.16,0h.23v.22A17.61,17.61,0,0,1,244.64,207.4Z" style="fill:#263238"></path><rect x="282.25" y="203.34" width="3.15" height="3.15" style="fill:#fff"></rect><path d="M285.4,206.49a25.47,25.47,0,0,1-.22-3.15l.22.23c-.91,0-2,0-3.15,0l.26-.26h0v.84c0,.28,0,.55,0,.82,0,.51,0,1,0,1.48l-.23-.22a25.47,25.47,0,0,1,3.15.22,16.54,16.54,0,0,1-3.15.23H282v-.24c0-.48,0-1,0-1.48,0-.27,0-.54,0-.82v-.84h0l.26-.26c1.16,0,2.24,0,3.15,0h.24v.22A16.54,16.54,0,0,1,285.4,206.49Z" style="fill:#263238"></path><rect x="241.7" y="105.09" width="3.15" height="3.15" style="fill:#fff"></rect><path d="M244.85,108.25a23.79,23.79,0,0,1-.22-3.16l.22.23c-.91,0-2,0-3.15,0l.26-.26h0v.82c0,.28,0,.55,0,.82,0,.51,0,1,0,1.49l-.23-.23a22.36,22.36,0,0,1,3.15.23,17.27,17.27,0,0,1-3.15.22h-.22v-.23c0-.48,0-1,0-1.49,0-.27,0-.54,0-.82v-.82h0c-.23.24.32-.31.26-.26,1.15,0,2.24,0,3.15,0h.23v.22A16.86,16.86,0,0,1,244.85,108.25Z" style="fill:#263238"></path><rect x="282.54" y="105.36" width="3.15" height="3.15" style="fill:#fff"></rect><path d="M285.69,108.51a23.35,23.35,0,0,1-.22-3.15l.22.22c-.92,0-2,0-3.15,0l.26-.26h0v.84c0,.28,0,.55,0,.82,0,.51,0,1,0,1.48l-.22-.22a23.35,23.35,0,0,1,3.15.22,16.67,16.67,0,0,1-3.15.23h-.22v-.23c0-.48,0-1,0-1.48,0-.27,0-.54,0-.82v-.84h0c-.24.23.31-.32.26-.26,1.15,0,2.23,0,3.15,0h.23v.22A16.54,16.54,0,0,1,285.69,108.51Z" style="fill:#263238"></path><path d="M155,150.53h24.27c3.22,0,3.23-5,0-5H155c-3.22,0-3.22,5,0,5Z" style="fill:#92E3A9"></path><path d="M182.52,212.1,199.71,195c2.28-2.28-1.26-5.82-3.54-3.54L179,208.56c-2.29,2.28,1.25,5.81,3.53,3.54Z" style="fill:#92E3A9"></path><path d="M223.66,217.13h38.4c3.22,0,3.22-5,0-5h-38.4c-3.22,0-3.22,5,0,5Z" style="fill:#92E3A9"></path><path d="M233.41,226.39h19.87c3.22,0,3.23-5,0-5H233.41c-3.22,0-3.22,5,0,5Z" style="fill:#92E3A9"></path><path d="M179.1,86.52l17.26,17.07c2.3,2.26,5.83-1.27,3.54-3.54L182.64,83c-2.3-2.27-5.83,1.27-3.54,3.53Z" style="fill:#92E3A9"></path><path d="M281.22,159.32c-.14,0-.26-8.71-.26-19.45s.12-19.45.26-19.45.26,8.71.26,19.45S281.37,159.32,281.22,159.32Z" style="fill:#263238"></path><rect x="280.78" y="141.62" width="0.89" height="0.89" style="fill:#fff"></rect><path d="M282,159.5a.87.87,0,1,1-.87-.87A.87.87,0,0,1,282,159.5Z" style="fill:#263238"></path><path d="M282,121.18a.87.87,0,1,1-.87-.88A.87.87,0,0,1,282,121.18Z" style="fill:#263238"></path><rect x="124.52" y="43.6" width="9.47" height="201.86" style="fill:#455a64"></rect><rect x="124.52" y="36.76" width="217.99" height="8.53" style="fill:#263238"></rect><rect x="124.52" y="45.28" width="217.99" height="8.17" style="fill:#455a64"></rect><path d="M130.94,40.71a1.46,1.46,0,1,1-1.45-1.46A1.45,1.45,0,0,1,130.94,40.71Z" style="fill:#455a64"></path><path d="M135.57,40.71a1.46,1.46,0,1,1-1.46-1.46A1.46,1.46,0,0,1,135.57,40.71Z" style="fill:#455a64"></path><path d="M140.19,40.71a1.46,1.46,0,1,1-1.46-1.46A1.45,1.45,0,0,1,140.19,40.71Z" style="fill:#455a64"></path><path d="M139.91,53.39a40,40,0,0,1-6.51.26,40.22,40.22,0,0,1-6.52-.26,41.63,41.63,0,0,1,6.52-.26A41.45,41.45,0,0,1,139.91,53.39Z" style="fill:#263238"></path><path d="M134,60.39a38.54,38.54,0,0,1-.26-6.27,38.61,38.61,0,0,1,.26-6.28,37.3,37.3,0,0,1,.26,6.28A37.23,37.23,0,0,1,134,60.39Z" style="fill:#263238"></path><path d="M142,53.26c-.15,0-.26-.76-.26-1.7s.11-1.71.26-1.71.26.77.26,1.71S142.14,53.26,142,53.26Z" style="fill:#263238"></path><path d="M151.2,53.44a8.34,8.34,0,0,1-.26-2.89,8.38,8.38,0,0,1,.26-2.9,8.1,8.1,0,0,1,.26,2.9A8.06,8.06,0,0,1,151.2,53.44Z" style="fill:#263238"></path><path d="M160,53.26c-.14,0-.26-.76-.26-1.7s.12-1.71.26-1.71.26.77.26,1.71S160.09,53.26,160,53.26Z" style="fill:#263238"></path><path d="M169.15,53.44a8.34,8.34,0,0,1-.26-2.89,8.38,8.38,0,0,1,.26-2.9,8.1,8.1,0,0,1,.26,2.9A8.06,8.06,0,0,1,169.15,53.44Z" style="fill:#263238"></path><path d="M177.9,53.26c-.14,0-.26-.76-.26-1.7s.12-1.71.26-1.71.26.77.26,1.71S178,53.26,177.9,53.26Z" style="fill:#263238"></path><path d="M187.11,53.44a7.93,7.93,0,0,1-.27-2.89,8,8,0,0,1,.27-2.9,8.38,8.38,0,0,1,.26,2.9A8.34,8.34,0,0,1,187.11,53.44Z" style="fill:#263238"></path><path d="M195.85,53.26c-.14,0-.26-.76-.26-1.7s.12-1.71.26-1.71.26.77.26,1.71S196,53.26,195.85,53.26Z" style="fill:#263238"></path><path d="M205.06,53.44a8.06,8.06,0,0,1-.26-2.89,8.1,8.1,0,0,1,.26-2.9,8.38,8.38,0,0,1,.26,2.9A8.34,8.34,0,0,1,205.06,53.44Z" style="fill:#263238"></path><path d="M213.8,53.26c-.14,0-.26-.76-.26-1.7s.12-1.71.26-1.71.26.77.26,1.71S213.94,53.26,213.8,53.26Z" style="fill:#263238"></path><path d="M223,53.44a8.06,8.06,0,0,1-.26-2.89,8.1,8.1,0,0,1,.26-2.9,8.38,8.38,0,0,1,.26,2.9A8.34,8.34,0,0,1,223,53.44Z" style="fill:#263238"></path><path d="M231.75,53.26c-.14,0-.26-.76-.26-1.7s.12-1.71.26-1.71.26.77.26,1.71S231.9,53.26,231.75,53.26Z" style="fill:#263238"></path><path d="M241,53.44a8.06,8.06,0,0,1-.26-2.89,8.1,8.1,0,0,1,.26-2.9,8.38,8.38,0,0,1,.26,2.9A8.34,8.34,0,0,1,241,53.44Z" style="fill:#263238"></path><path d="M249.7,53.26c-.14,0-.26-.76-.26-1.7s.12-1.71.26-1.71.26.77.26,1.71S249.85,53.26,249.7,53.26Z" style="fill:#263238"></path><path d="M258.91,53.44a8.06,8.06,0,0,1-.26-2.89,8.1,8.1,0,0,1,.26-2.9,8.38,8.38,0,0,1,.26,2.9A8.34,8.34,0,0,1,258.91,53.44Z" style="fill:#263238"></path><path d="M267.65,53.26c-.14,0-.26-.76-.26-1.7s.12-1.71.26-1.71.26.77.26,1.71S267.8,53.26,267.65,53.26Z" style="fill:#263238"></path><path d="M276.86,53.44a8.06,8.06,0,0,1-.26-2.89,8.1,8.1,0,0,1,.26-2.9,8.38,8.38,0,0,1,.26,2.9A8.34,8.34,0,0,1,276.86,53.44Z" style="fill:#263238"></path><path d="M285.6,53.26c-.14,0-.26-.76-.26-1.7s.12-1.71.26-1.71.26.77.26,1.71S285.75,53.26,285.6,53.26Z" style="fill:#263238"></path><path d="M294.81,53.44a8.34,8.34,0,0,1-.26-2.89,8.38,8.38,0,0,1,.26-2.9,8.38,8.38,0,0,1,.26,2.9A8.34,8.34,0,0,1,294.81,53.44Z" style="fill:#263238"></path><path d="M303.55,53.26c-.14,0-.26-.76-.26-1.7s.12-1.71.26-1.71.26.77.26,1.71S303.7,53.26,303.55,53.26Z" style="fill:#263238"></path><path d="M312.76,53.44a8.34,8.34,0,0,1-.26-2.89,8.38,8.38,0,0,1,.26-2.9,8.38,8.38,0,0,1,.26,2.9A8.34,8.34,0,0,1,312.76,53.44Z" style="fill:#263238"></path><path d="M321.5,53.26c-.14,0-.26-.76-.26-1.7s.12-1.71.26-1.71.27.77.27,1.71S321.65,53.26,321.5,53.26Z" style="fill:#263238"></path><path d="M133.62,240.8c0,.15-.76.26-1.7.26s-1.7-.11-1.7-.26.76-.26,1.7-.26S133.62,240.66,133.62,240.8Z" style="fill:#263238"></path><path d="M133.81,231.6a8.42,8.42,0,0,1-2.9.26,8.38,8.38,0,0,1-2.9-.26,8.1,8.1,0,0,1,2.9-.26A8.14,8.14,0,0,1,133.81,231.6Z" style="fill:#263238"></path><path d="M133.62,222.85c0,.15-.76.26-1.7.26s-1.7-.11-1.7-.26.76-.26,1.7-.26S133.62,222.71,133.62,222.85Z" style="fill:#263238"></path><path d="M133.81,213.65a8.42,8.42,0,0,1-2.9.26,8.38,8.38,0,0,1-2.9-.26,8.1,8.1,0,0,1,2.9-.26A8.14,8.14,0,0,1,133.81,213.65Z" style="fill:#263238"></path><path d="M133.62,204.9c0,.15-.76.26-1.7.26s-1.7-.11-1.7-.26.76-.26,1.7-.26S133.62,204.76,133.62,204.9Z" style="fill:#263238"></path><path d="M133.81,195.7a8.42,8.42,0,0,1-2.9.26,8.38,8.38,0,0,1-2.9-.26,8.1,8.1,0,0,1,2.9-.26A8.14,8.14,0,0,1,133.81,195.7Z" style="fill:#263238"></path><path d="M133.62,187c0,.14-.76.26-1.7.26s-1.7-.12-1.7-.26.76-.26,1.7-.26S133.62,186.81,133.62,187Z" style="fill:#263238"></path><path d="M133.81,177.75a8.42,8.42,0,0,1-2.9.26,8.38,8.38,0,0,1-2.9-.26,8.1,8.1,0,0,1,2.9-.26A8.14,8.14,0,0,1,133.81,177.75Z" style="fill:#263238"></path><path d="M133.62,169c0,.14-.76.26-1.7.26s-1.7-.12-1.7-.26.76-.26,1.7-.26S133.62,168.86,133.62,169Z" style="fill:#263238"></path><path d="M133.81,159.79a8,8,0,0,1-2.9.27,8,8,0,0,1-2.9-.27,8.38,8.38,0,0,1,2.9-.26A8.42,8.42,0,0,1,133.81,159.79Z" style="fill:#263238"></path><path d="M133.62,151.05c0,.14-.76.26-1.7.26s-1.7-.12-1.7-.26.76-.26,1.7-.26S133.62,150.91,133.62,151.05Z" style="fill:#263238"></path><path d="M133.81,141.84a8.14,8.14,0,0,1-2.9.26,8.1,8.1,0,0,1-2.9-.26,8.38,8.38,0,0,1,2.9-.26A8.42,8.42,0,0,1,133.81,141.84Z" style="fill:#263238"></path><path d="M133.62,133.1c0,.14-.76.26-1.7.26s-1.7-.12-1.7-.26.76-.26,1.7-.26S133.62,133,133.62,133.1Z" style="fill:#263238"></path><path d="M133.81,123.89a8.14,8.14,0,0,1-2.9.26,8.1,8.1,0,0,1-2.9-.26,8.38,8.38,0,0,1,2.9-.26A8.42,8.42,0,0,1,133.81,123.89Z" style="fill:#263238"></path><path d="M133.62,115.15c0,.14-.76.26-1.7.26s-1.7-.12-1.7-.26.76-.26,1.7-.26S133.62,115,133.62,115.15Z" style="fill:#263238"></path><path d="M133.81,105.94a8.14,8.14,0,0,1-2.9.26,8.1,8.1,0,0,1-2.9-.26,8.38,8.38,0,0,1,2.9-.26A8.42,8.42,0,0,1,133.81,105.94Z" style="fill:#263238"></path><path d="M133.62,97.2c0,.14-.76.26-1.7.26s-1.7-.12-1.7-.26.76-.26,1.7-.26S133.62,97.05,133.62,97.2Z" style="fill:#263238"></path><path d="M133.81,88a8.14,8.14,0,0,1-2.9.26A8.1,8.1,0,0,1,128,88a8.38,8.38,0,0,1,2.9-.26A8.42,8.42,0,0,1,133.81,88Z" style="fill:#263238"></path><path d="M133.62,79.25c0,.14-.76.26-1.7.26s-1.7-.12-1.7-.26.76-.26,1.7-.26S133.62,79.1,133.62,79.25Z" style="fill:#263238"></path><path d="M133.81,70a8.14,8.14,0,0,1-2.9.26A8.1,8.1,0,0,1,128,70a8.38,8.38,0,0,1,2.9-.26A8.42,8.42,0,0,1,133.81,70Z" style="fill:#263238"></path><path d="M133.62,61.3c0,.14-.76.26-1.7.26s-1.7-.12-1.7-.26.76-.26,1.7-.26S133.62,61.15,133.62,61.3Z" style="fill:#263238"></path><path d="M342.52,245.47a.91.91,0,0,1,0-.27c0-.17,0-.41,0-.74,0-.65,0-1.62,0-2.89,0-2.55,0-6.31-.08-11.22,0-9.8-.1-24.16-.17-42.44-.08-36.46-.2-88.56-.34-151.15l.67.67-218,.11h0l.79-.78c0,76.24-.08,147.8-.1,208.71l-.69-.69,157.75.35,44.41.18,11.75.08,3,0,.78,0a1,1,0,0,1,.28,0h-.24l-.74,0-3,0-11.62.08-44.26.18-158.18.35h-.68v-.68c0-60.91-.06-132.47-.1-208.71V36h.81l218,.11h.67v.67c-.15,62.76-.26,115-.35,151.57-.07,18.22-.13,32.53-.17,42.29,0,4.86-.06,8.58-.08,11.09,0,1.24,0,2.19,0,2.83,0,.3,0,.54,0,.7A1.85,1.85,0,0,1,342.52,245.47Z" style="fill:#263238"></path></g><g id="freepik--Sketch--inject-27"><path d="M439.56,156.75a3.83,3.83,0,1,1-4.1-.46l-7.53-.85a3.82,3.82,0,1,1-4.1-.46l-7.53-.84a3.84,3.84,0,1,1-4.1-.46l-7.54-.85a3.83,3.83,0,1,1-4.09-.46l-7.54-.85a3.84,3.84,0,1,1-4.09-.45l-7.54-.85a3.83,3.83,0,1,1-4.09-.46l-5.17-.58-10.95,97.53,75,8.42,10.95-97.53Z" style="fill:#fff"></path><path d="M439.56,156.75l7.6.78h.07v.07c-1.64,14.83-5.56,50.24-10.8,97.54l0,.22-.22,0-75-8.39-.25,0,0-.25,4.35-38.81c2.29-20.38,4.51-40.1,6.6-58.72l0-.25.25,0,5.17.58.87.1-.79.37a3.58,3.58,0,1,0,3.83.43l-.66-.53.84.1,7.54.85.82.09-.75.36a3.59,3.59,0,1,0,3.85.42l-.62-.49.79.09,7.53.85.77.09-.69.33a3.6,3.6,0,1,0,3.87.42l-.56-.44.71.08,7.53.85.66.08-.59.29a3.63,3.63,0,1,0,3.9.42l-.47-.37.59.07,7.54.85.54.07-.49.24a3.66,3.66,0,0,0-1.78,1.9,3.68,3.68,0,1,0,5.73-1.49l-.34-.27.43,0,7.53.86.37,0-.33.16a3.74,3.74,0,0,0,3.14,6.78,3.76,3.76,0,0,0,1.72-5.44,4.25,4.25,0,0,0-.81-1s.09.06.25.2a3.77,3.77,0,0,1,.61.74,3.85,3.85,0,0,1,.26,3.65,3.91,3.91,0,1,1-5.26-5.15l0,.2-7.54-.82.09-.22a4,4,0,0,1-2.18,7,4,4,0,0,1-2.06-7.53l.05.3-7.53-.83.12-.31a4,4,0,1,1-6.17,1.45,4.09,4.09,0,0,1,1.88-1.95l.07.37-7.54-.84.15-.36a4,4,0,1,1-4.32-.5l.08.42-7.54-.84.17-.4a4.06,4.06,0,1,1-5.2,6.23,4.12,4.12,0,0,1-1.32-2.24,4.08,4.08,0,0,1,2.17-4.49l.08.45-7.53-.84.17-.43a4.07,4.07,0,1,1-4.35-.49l.08.47-5.17-.58.28-.22c-2.09,18.61-4.3,38.34-6.58,58.71-1.5,13.3-3,26.32-4.36,38.81l-.23-.28,75,8.46-.25.19c5.39-47.28,9.42-82.68,11.11-97.51l.06.08Z" style="fill:#263238"></path><path d="M371.63,247.88c-.14,0,2-20.37,4.84-45.45S381.69,157,381.83,157s-2,20.36-4.84,45.45S371.77,247.89,371.63,247.88Z" style="fill:#e0e0e0"></path><path d="M446.05,167.45c0,.15-16.83-1.62-37.54-3.95S371,159.18,371,159s16.82,1.63,37.54,4S446.06,167.31,446.05,167.45Z" style="fill:#e0e0e0"></path><path d="M382.59,249.11c-.15,0,2-20.53,4.88-45.8s5.25-45.77,5.39-45.75-2,20.52-4.88,45.81S382.73,249.12,382.59,249.11Z" style="fill:#e0e0e0"></path><path d="M393.54,250.34c-.14,0,2-20.37,4.84-45.45s5.22-45.41,5.36-45.39-2,20.36-4.84,45.45S393.69,250.35,393.54,250.34Z" style="fill:#e0e0e0"></path><path d="M404.5,251.57c-.14,0,2-20.37,4.84-45.45s5.22-45.41,5.36-45.39-2,20.36-4.84,45.45S404.64,251.58,404.5,251.57Z" style="fill:#e0e0e0"></path><path d="M415.46,252.8c-.14,0,2-20.3,4.82-45.31s5.2-45.27,5.35-45.25-2,20.3-4.83,45.31S415.6,252.81,415.46,252.8Z" style="fill:#e0e0e0"></path><path d="M426.42,254c-.15,0,2-20.29,4.89-45.28s5.27-45.24,5.41-45.23-2,20.29-4.89,45.29S426.56,254,426.42,254Z" style="fill:#e0e0e0"></path><path d="M438.78,232.21c0,.14-16.83-1.63-37.56-4s-37.51-4.33-37.5-4.47,16.83,1.63,37.56,3.95S438.79,232.06,438.78,232.21Z" style="fill:#e0e0e0"></path><path d="M437.56,243.08c0,.14-16.84-1.63-37.56-4s-37.51-4.33-37.5-4.47,16.83,1.63,37.56,4S437.57,242.93,437.56,243.08Z" style="fill:#e0e0e0"></path><path d="M440,221.25c0,.14-17-1.64-37.85-4s-37.8-4.36-37.79-4.5,17,1.64,37.85,4S440,221.11,440,221.25Z" style="fill:#e0e0e0"></path><path d="M441.24,210.29c0,.14-16.83-1.63-37.56-3.95s-37.51-4.33-37.5-4.47,16.83,1.62,37.56,3.95S441.25,210.15,441.24,210.29Z" style="fill:#e0e0e0"></path><path d="M442.47,199.33c0,.15-16.83-1.62-37.56-4s-37.51-4.33-37.5-4.47,16.83,1.63,37.56,4S442.48,199.19,442.47,199.33Z" style="fill:#e0e0e0"></path><path d="M443.7,188.38c0,.14-16.78-1.62-37.44-3.94s-37.4-4.32-37.38-4.46,16.77,1.62,37.44,3.94S443.71,188.23,443.7,188.38Z" style="fill:#e0e0e0"></path><path d="M444.93,177.42c0,.14-16.77-1.65-37.42-4s-37.37-4.39-37.35-4.53,16.76,1.65,37.41,4S444.94,177.28,444.93,177.42Z" style="fill:#e0e0e0"></path><path d="M397.37,224a1.15,1.15,0,0,1-.49,0,2.85,2.85,0,0,1-1.3-.6,6.08,6.08,0,0,1-1.86-4.76c0-1.1.15-2.29.13-3.55a6.12,6.12,0,0,0-1.09-3.72c-.8-1.15-2-2.13-2.88-3.47a12,12,0,0,1-1.82-4.57,14.56,14.56,0,0,1,1.47-9.24,17.88,17.88,0,0,1,5-5.8,22.41,22.41,0,0,1,4.46-2.62c.56-.23,1-.41,1.31-.5a2.26,2.26,0,0,1,.47-.14,18.32,18.32,0,0,1-1.69.83,23.92,23.92,0,0,0-4.32,2.72,17.87,17.87,0,0,0-4.83,5.74,14.21,14.21,0,0,0-1.38,8.92,11.58,11.58,0,0,0,1.73,4.37c.84,1.28,2,2.26,2.85,3.49a6.58,6.58,0,0,1,1.14,4c0,1.3-.18,2.48-.2,3.56a5.92,5.92,0,0,0,1.63,4.59A3.43,3.43,0,0,0,397.37,224Z" style="fill:#263238"></path><path d="M410.26,225.06a3.09,3.09,0,0,1,.18-.56c.11-.36.24-.9.38-1.6.3-1.41.54-3.49,1.16-6a11.5,11.5,0,0,1,.66-1.95,9.68,9.68,0,0,1,1.22-1.87c.94-1.22,2.09-2.38,3.18-3.66a14.62,14.62,0,0,0,3.7-10,14.51,14.51,0,0,0-3.89-9.91,15.22,15.22,0,0,0-7.73-4.21,15.47,15.47,0,0,0-6-.09c-1.4.28-2.14.59-2.16.53a3,3,0,0,1,.53-.23,10.54,10.54,0,0,1,1.59-.5,14.9,14.9,0,0,1,6.13-.07,15.33,15.33,0,0,1,8,4.24,14.81,14.81,0,0,1,4.07,10.24,15.31,15.31,0,0,1-1,5.72,15.58,15.58,0,0,1-2.84,4.6c-2.24,2.57-4.63,4.65-5.08,7.26-.65,2.48-.95,4.56-1.31,6a10.57,10.57,0,0,1-.49,1.6A2.39,2.39,0,0,1,410.26,225.06Z" style="fill:#263238"></path><path d="M409.55,225a6.22,6.22,0,0,1-1.85.44,23.82,23.82,0,0,1-4.57.22,24.17,24.17,0,0,1-4.54-.63,5.68,5.68,0,0,1-1.8-.6c0-.16,2.84.57,6.36.71S409.53,224.82,409.55,225Z" style="fill:#263238"></path><path d="M408.78,229.26a20.1,20.1,0,0,1-6.27.17,19.72,19.72,0,0,1-6.14-1.27c0-.15,2.76.46,6.19.76S408.77,229.1,408.78,229.26Z" style="fill:#263238"></path><path d="M407.18,233.38a11.94,11.94,0,0,1-9.05-.87c.06-.15,2,.58,4.49.81S407.15,233.22,407.18,233.38Z" style="fill:#263238"></path><path d="M391.84,205.62a2,2,0,0,1-.25-.73,11.31,11.31,0,0,1-.3-2.08,13.75,13.75,0,0,1,5.89-12,12.33,12.33,0,0,1,1.83-1,2.13,2.13,0,0,1,.73-.25c0,.08-1,.53-2.34,1.59a14.46,14.46,0,0,0-5.74,11.72C391.67,204.54,391.93,205.61,391.84,205.62Z" style="fill:#263238"></path><path d="M405.38,188.58c0,.14-.37.26-.83.25s-.83-.13-.82-.27.37-.25.83-.25S405.38,188.44,405.38,188.58Z" style="fill:#263238"></path><path d="M389.75,215.45a32.84,32.84,0,0,1-5.15,2.86,33.32,33.32,0,0,1-5.39,2.39,32.67,32.67,0,0,1,5.16-2.86A33.46,33.46,0,0,1,389.75,215.45Z" style="fill:#263238"></path><path d="M383.15,198.38a22.25,22.25,0,0,1-4.72.27,21,21,0,0,1-4.73-.25,22.25,22.25,0,0,1,4.72-.27A21,21,0,0,1,383.15,198.38Z" style="fill:#263238"></path><path d="M392.61,184.19a22.65,22.65,0,0,1-4.68-3.23,23.66,23.66,0,0,1-4.11-3.92,47.17,47.17,0,0,1,4.44,3.52A49.08,49.08,0,0,1,392.61,184.19Z" style="fill:#263238"></path><path d="M407.47,180.2a28.43,28.43,0,0,1-.47-5.32,28.09,28.09,0,0,1,0-5.34,27.9,27.9,0,0,1,.48,5.32A26.64,26.64,0,0,1,407.47,180.2Z" style="fill:#263238"></path><path d="M430.78,179.36a20.49,20.49,0,0,1-4.21,3.88,20.23,20.23,0,0,1-4.87,3c-.08-.13,2.06-1.53,4.56-3.43S430.68,179.25,430.78,179.36Z" style="fill:#263238"></path><path d="M432.59,204.7a12.32,12.32,0,0,1-4.66.35,12.52,12.52,0,0,1-4.58-.92c0-.15,2.07.25,4.61.4S432.57,204.55,432.59,204.7Z" style="fill:#263238"></path><path d="M425.17,224.91a34.88,34.88,0,0,1-3.41-3.15,33.2,33.2,0,0,1-3.34-3.22,15.16,15.16,0,0,1,3.69,2.84A14.78,14.78,0,0,1,425.17,224.91Z" style="fill:#263238"></path><path d="M406,233.53a2.24,2.24,0,0,1-.67,1.37,4.15,4.15,0,0,1-6.56-.22,2.28,2.28,0,0,1-.57-1.41c.09,0,.27.52.86,1.17a4.05,4.05,0,0,0,6,.21C405.66,234,405.88,233.5,406,233.53Z" style="fill:#263238"></path><path d="M380.56,164.14a4,4,0,1,1-3.53-4.43A4,4,0,0,1,380.56,164.14Z" style="fill:#92E3A9"></path><path d="M449.05,167.06a4,4,0,1,1-3.54-4.43A4,4,0,0,1,449.05,167.06Z" style="fill:#92E3A9"></path><path d="M402.39,222.63a3.65,3.65,0,0,1-.12-1.24,6.35,6.35,0,0,1,1.29-3.31,13.85,13.85,0,0,1,4.21-3.65c1.8-1.16,4.05-2.31,5.61-4.45l.21.32-11.74,2.6-1.63.36a2,2,0,0,1-1,0,1.12,1.12,0,0,1-.75-.73c-.22-1.46,1-2.36,1.74-3.1l5.26-4.89,8.46-7.82.2.43a57.75,57.75,0,0,0-18.41,5.16l-.44.2.19-.44a21.9,21.9,0,0,1,5.48-7.64,19,19,0,0,1,2-1.59c.24-.17.43-.28.56-.36l.2-.11a5.43,5.43,0,0,1-.7.55c-.46.36-1.13.9-1.94,1.66a22.45,22.45,0,0,0-5.27,7.63l-.25-.24a57.08,57.08,0,0,1,18.51-5.32l.76-.08-.56.52-8.44,7.83-5.27,4.88a7.45,7.45,0,0,0-1.18,1.21,1.81,1.81,0,0,0-.43,1.37c.11.4.62.52,1.13.39l1.61-.35,11.76-2.53.55-.11-.33.44c-1.67,2.24-4,3.36-5.77,4.49a14,14,0,0,0-4.2,3.51,6.27,6.27,0,0,0-1.35,3.18A11.48,11.48,0,0,0,402.39,222.63Z" style="fill:#92E3A9"></path></g><g id="freepik--speech-bubble--inject-27"><path d="M86.73,207.11l-6-10.5a28.17,28.17,0,1,0-6.75,7.5h0Z" style="fill:#fff"></path><path d="M86.73,207.11,74,204.22a.1.1,0,0,1-.08-.12s0,0,0,0h0l.15.15a28.12,28.12,0,0,1-13.5,5.7,26.08,26.08,0,0,1-4.46.23c-.76-.05-1.55-.07-2.33-.13l-2.38-.36a28.32,28.32,0,0,1-17.59-11.29,28,28,0,0,1-4.76-10.87,28.72,28.72,0,0,1,.33-12.53,27.74,27.74,0,0,1,6-11.58,28.29,28.29,0,0,1,10.85-7.74,28.81,28.81,0,0,1,12.62-1.94,27.7,27.7,0,0,1,11.58,3.43,28.56,28.56,0,0,1,13.36,16.44,30.5,30.5,0,0,1,1.22,9.15,28.06,28.06,0,0,1-4.21,14v-.1l5.88,10.55-6-10.45a.11.11,0,0,1,0-.11,27.93,27.93,0,0,0,4.09-13.85,30.13,30.13,0,0,0-1.25-9A28.22,28.22,0,0,0,70.3,157.44a27.49,27.49,0,0,0-11.43-3.35A28.23,28.23,0,0,0,46.44,156,27.92,27.92,0,0,0,29.8,175a28.36,28.36,0,0,0-.33,12.35,27.72,27.72,0,0,0,4.67,10.72A28.08,28.08,0,0,0,51.48,209.3l2.35.37c.78.06,1.55.08,2.31.13a24.61,24.61,0,0,0,4.41-.21A28,28,0,0,0,74,204a.11.11,0,0,1,.15.15h0L74,204Z" style="fill:#263238"></path><polygon points="45.1 182.36 48.41 179.06 54.77 184.72 67.27 172.69 70.34 175.99 54.3 191.08 45.1 182.36" style="fill:#92E3A9"></polygon></g><g id="freepik--Character--inject-27"><path d="M116.38,210.09l9.08,14.08,12.17,11.08,6.4-9.7-.41-9.45-.34-7.92s10.46-1.94,10.28-12.45c-.08-5.07-1.11-15.5-2.14-24.93a19.58,19.58,0,0,0-20-17.43l-1,0c-10.91,1-16.19,10.75-14.93,21.63l.93,35.06" style="fill:#936760"></path><path d="M143.29,208.17a24.46,24.46,0,0,1-13.8-3.49s3.46,7.46,13.91,6.21Z" style="fill:#6f4c47"></path><path d="M148.67,180.14a1.51,1.51,0,0,1-1.4,1.56,1.44,1.44,0,0,1-1.59-1.31,1.49,1.49,0,0,1,1.4-1.55A1.43,1.43,0,0,1,148.67,180.14Z" style="fill:#263238"></path><path d="M149.45,175.44c-.18.21-1.34-.6-3-.55s-2.77.89-3,.7.09-.45.6-.84a4.19,4.19,0,0,1,2.35-.8,3.92,3.92,0,0,1,2.36.69C149.36,175,149.54,175.35,149.45,175.44Z" style="fill:#263238"></path><path d="M134.41,180.14a1.51,1.51,0,0,1-1.4,1.56,1.44,1.44,0,0,1-1.59-1.31,1.49,1.49,0,0,1,1.4-1.55A1.43,1.43,0,0,1,134.41,180.14Z" style="fill:#263238"></path><path d="M133.36,175.46c-.16.22-1.4-.46-3-.23s-2.66,1.18-2.86,1,0-.45.5-.89a4.16,4.16,0,0,1,2.26-1.06,4,4,0,0,1,2.42.43C133.22,175,133.43,175.36,133.36,175.46Z" style="fill:#263238"></path><path d="M139.66,188.56a10.49,10.49,0,0,1,2.61-.55c.41,0,.79-.15.86-.43a2.18,2.18,0,0,0-.31-1.21c-.42-1-.86-2-1.31-3.11-1.83-4.41-3.16-8-3-8.12s1.8,3.45,3.62,7.86l1.26,3.13a2.33,2.33,0,0,1,.26,1.61,1,1,0,0,1-.66.62,2.78,2.78,0,0,1-.69.12A10.93,10.93,0,0,1,139.66,188.56Z" style="fill:#263238"></path><path d="M133.38,168.49c-.15.44-1.77.28-3.65.56s-3.41.85-3.67.46c-.12-.18.14-.6.74-1a6.2,6.2,0,0,1,2.7-1,6.14,6.14,0,0,1,2.88.25C133.08,167.94,133.44,168.28,133.38,168.49Z" style="fill:#263238"></path><path d="M149,169.21c-.27.38-1.39,0-2.73,0s-2.46.32-2.73-.06c-.12-.18.05-.55.53-.92a4,4,0,0,1,4.41,0C149,168.66,149.12,169,149,169.21Z" style="fill:#263238"></path><path d="M116.53,182.78c-.18-.07-7.28-1.93-6.84,5.25s7.55,5.25,7.55,5S116.53,182.78,116.53,182.78Z" style="fill:#936760"></path><path d="M114.88,190.49s-.12.09-.32.2a1.24,1.24,0,0,1-.94.08,3.12,3.12,0,0,1-1.6-2.69,4.26,4.26,0,0,1,.24-1.81,1.46,1.46,0,0,1,.89-1,.63.63,0,0,1,.75.3c.11.19.07.34.11.35s.15-.13.07-.43a.75.75,0,0,0-.31-.43,1,1,0,0,0-.7-.14,1.75,1.75,0,0,0-1.23,1.19,4.35,4.35,0,0,0-.32,2c.14,1.44,1,2.75,2,3a1.29,1.29,0,0,0,1.13-.26C114.88,190.66,114.91,190.5,114.88,190.49Z" style="fill:#6f4c47"></path><path d="M152.23,158.51a3.68,3.68,0,0,0-2.84-2.85,3.27,3.27,0,0,0-5.22-3.65,3.36,3.36,0,0,0-4.66-2.87,2.83,2.83,0,0,0-5.35-1.39,4.89,4.89,0,0,0-7.62-.4,6.24,6.24,0,0,0-7.47,3.56,6,6,0,0,0-5.1,4.22,4.34,4.34,0,0,0-3,6.88,3.21,3.21,0,0,0-.52,5.08,3.16,3.16,0,0,0,.25,5.69c-1,.16-1.43,1.57-1.09,2.58a31.79,31.79,0,0,0,1.58,2.77c.37.8.49,1.68.81,2.5a5.72,5.72,0,0,0,3.48,3.29l-.18.22c-.16.92,1.14,1.52,2,1.13a4.65,4.65,0,0,0,1.79-2.11,10.07,10.07,0,0,0,1.43-2.88,2.49,2.49,0,0,0-1.07-2.79,3.74,3.74,0,0,0,2.19-3,10.87,10.87,0,0,0-.34-3.88c-.39-1.89-.78-3.77-1.18-5.66a7.17,7.17,0,0,0,6.08-4.25,4.11,4.11,0,0,0,5.92-1.63,5.35,5.35,0,0,0,6.6,3.12c-.24,1.49,2.47,2.8,3.94,3.15a5.3,5.3,0,0,0,3.28-.74s2.55,1.42,3.91.83S153,163,152,161.64A6.73,6.73,0,0,0,152.23,158.51Z" style="fill:#263238"></path><path d="M110.08,167.08c.07,0,.13.49.74.9a1.35,1.35,0,0,0,1.18.18,1.44,1.44,0,0,0,1-1.09l.07-.43.34.28a1.87,1.87,0,0,0,3.05-1.68l-.07-.42.4.15a1.9,1.9,0,0,0,1.45-.05,2,2,0,0,0,.86-.8,5.43,5.43,0,0,0,.34-1.06s.23.44-.07,1.19a2.1,2.1,0,0,1-.94,1,2.32,2.32,0,0,1-1.81.15l.33-.27a2.38,2.38,0,0,1-1.33,2.5,2.43,2.43,0,0,1-2.54-.36l.42-.15a1.87,1.87,0,0,1-1.35,1.41,1.69,1.69,0,0,1-1.49-.34C110,167.65,110,167.05,110.08,167.08Z" style="fill:#455a64"></path><path d="M109.19,174c0-.05.27.19.78.28a1.73,1.73,0,0,0,1.78-.82l.14-.26.2.21a2,2,0,0,0,1.85.46,1.86,1.86,0,0,0,1.29-1.71v-.48l.4.25a1.28,1.28,0,0,0,.34.14,1.3,1.3,0,0,0,1.43-.52,1.36,1.36,0,0,0,0-1.43l-.28-.44.51.06a2.29,2.29,0,0,0,1.65-.45,2.21,2.21,0,0,0,.77-1.12,4.64,4.64,0,0,0,.13-1.26,1.64,1.64,0,0,1,.15,1.34,2.45,2.45,0,0,1-.8,1.35,2.63,2.63,0,0,1-2,.62l.23-.37a1.81,1.81,0,0,1-2,2.75,1.89,1.89,0,0,1-.48-.21l.41-.23a2.36,2.36,0,0,1-1.7,2.2,2.32,2.32,0,0,1-2.28-.66l.33-.05a1.81,1.81,0,0,1-1.14.86,1.89,1.89,0,0,1-1.06,0C109.34,174.32,109.17,174,109.19,174Z" style="fill:#455a64"></path><path d="M138.56,149a2.72,2.72,0,0,0-.82-.44,1.52,1.52,0,0,0-1.89,1.15l-.09.41-.22-.36a2.67,2.67,0,0,0-2.25-1.18,2.56,2.56,0,0,0-2.32,1.87l-.12.48-.32-.38a3.16,3.16,0,0,0-2.51-1.12,3,3,0,0,0-2.51,1.49,3.22,3.22,0,0,0-.42,1.18l0,.29-.28-.06a3.07,3.07,0,0,0-3.38,1.7,3.12,3.12,0,0,0,.6,3.34l.29.28-.4.09a3.34,3.34,0,0,0-2.66,3.35,5.11,5.11,0,0,0,.43,1.73s-.13-.11-.29-.39a3.37,3.37,0,0,1-.38-1.33,3.41,3.41,0,0,1,.49-2.12,3.75,3.75,0,0,1,2.32-1.67l-.11.37a3.48,3.48,0,0,1,3.2-5.88l-.32.23a3.51,3.51,0,0,1,.49-1.39,3.58,3.58,0,0,1,3-1.74,3.68,3.68,0,0,1,2.91,1.33l-.43.1a2.92,2.92,0,0,1,5.34-.74l-.31,0a1.8,1.8,0,0,1,1.06-1.23,1.69,1.69,0,0,1,1.21,0,1.66,1.66,0,0,1,.63.41C138.53,148.87,138.57,149,138.56,149Z" style="fill:#455a64"></path><path d="M153.27,190a2.26,2.26,0,0,0-3.32,1.1,2.79,2.79,0,0,0-5,.85,2.3,2.3,0,0,0-3.83-.64,1.8,1.8,0,0,0-1.94-.79,1.77,1.77,0,0,0-2.9-1.57,2.89,2.89,0,0,0-4.27-.71,1.6,1.6,0,0,0-3.09.12,2.59,2.59,0,0,0-3-.78,1.74,1.74,0,0,0-2.16-1.6c.25-.88-1-1.28-1.72-1.92-.29-.28-.48-.67-.8-.93s-.88-.31-1.09,0a1.48,1.48,0,0,0-2.79-1,4.78,4.78,0,0,0-.25,1.26c-.19,1.38-1,3,0,4,.18.17.41.31.48.55s-.26.78-.29,1.19.41.86.61,1.3a4.43,4.43,0,0,1,0,2.14c-.06.72.35,1.63,1.07,1.56a2.54,2.54,0,0,0,.8,3.13,2.46,2.46,0,0,0,1.44,3.24,1.27,1.27,0,0,0-.09,1.67,3.66,3.66,0,0,0,1.47,1.06,1,1,0,0,0-.25,1.47,2.42,2.42,0,0,0,1.41.87,1,1,0,0,1,.62.33c.26.37-.09.88,0,1.32.11.69,1.08.89,1.37,1.52s-.08,1.34.37,1.77c.29.27.75.22,1.13.35.67.24,1,1,1.4,1.57a6.05,6.05,0,0,0,3.48,1.87c.67.17,1.33.32,2,.44,1.34.25,2.7.41,4.05.58.68.08,1.51.09,1.86-.49a2.35,2.35,0,0,0,3.73-.44,5.69,5.69,0,0,0,3.62-.69l1.19-.52c1.19-.51,2.51-1.18,2.86-2.42a2.61,2.61,0,0,0,1.87-3.57c.54.15,1.07-.4,1.15-.95a5,5,0,0,0-.21-1.66c-.41-2.25.78-4.55.47-6.81-.22-1.59-1.16-3.16-.71-4.69a2.75,2.75,0,0,0,.23-1c0-.33-.33-.67-.65-.57a1.46,1.46,0,0,0-1.47-1.94" style="fill:#263238"></path><path d="M134.94,189.81c.26,0,.32,1.73,1.85,2.93s3.4.95,3.42,1.2-.41.35-1.19.4a4.43,4.43,0,0,1-2.85-.9,3.81,3.81,0,0,1-1.44-2.46C134.64,190.25,134.82,189.81,134.94,189.81Z" style="fill:#fff"></path><path d="M124.7,202.15a11.86,11.86,0,0,1-.16-7.45,3.4,3.4,0,0,0-.44,1,9,9,0,0,0,.11,5.39A3.21,3.21,0,0,0,124.7,202.15Z" style="fill:#455a64"></path><path d="M123.05,199.62s-.22-.28-.4-.8a5.2,5.2,0,0,1-.18-2.11c.13-1.7.6-3,.52-3.05a7.26,7.26,0,0,0-.8,3,4.55,4.55,0,0,0,.27,2.22C122.71,199.44,123,199.64,123.05,199.62Z" style="fill:#455a64"></path><path d="M121.28,198.17a11,11,0,0,1-.75-3.13,10.74,10.74,0,0,1,.49-3.18,2.2,2.2,0,0,0-.44.87,6.33,6.33,0,0,0,.19,4.61A2.59,2.59,0,0,0,121.28,198.17Z" style="fill:#455a64"></path><path d="M150.51,208.9a1.93,1.93,0,0,0,1-.64,5.77,5.77,0,0,0,1.25-2.57,9,9,0,0,0,.24-2.84,3.61,3.61,0,0,0-.23-1.16,14.31,14.31,0,0,1-.29,3.93,6.38,6.38,0,0,1-1.12,2.51A10.21,10.21,0,0,1,150.51,208.9Z" style="fill:#455a64"></path><path d="M149,208.52a2.47,2.47,0,0,0,.8-.57,5.64,5.64,0,0,0,1.33-2,5.53,5.53,0,0,0,.38-2.35,2.21,2.21,0,0,0-.2-1,6.28,6.28,0,0,0,0,1,6.82,6.82,0,0,1-.44,2.25,6.48,6.48,0,0,1-1.21,1.95C149.24,208.25,149,208.48,149,208.52Z" style="fill:#455a64"></path><path d="M142.49,194.34a1.85,1.85,0,0,0,.14-1.36,1.8,1.8,0,0,0-.66-1.2c-.07.05.24.55.38,1.25S142.4,194.32,142.49,194.34Z" style="fill:#455a64"></path><path d="M140.67,193.9c.05.06.5-.34.61-1s-.19-1.23-.26-1.19.08.53,0,1.14S140.61,193.85,140.67,193.9Z" style="fill:#455a64"></path><path d="M138.85,193.34c.05.06.46-.32.63-1a1.39,1.39,0,0,0,0-1.15c-.08,0-.06.51-.22,1.08S138.78,193.29,138.85,193.34Z" style="fill:#455a64"></path><path d="M137.54,191.85c.07,0,.28-.21.42-.59s.11-.71,0-.72-.19.28-.31.63S137.47,191.81,137.54,191.85Z" style="fill:#455a64"></path><path d="M136.4,191.26c.08,0,.32-.31.72-.63s.8-.47.78-.55-.5,0-1,.33S136.33,191.23,136.4,191.26Z" style="fill:#455a64"></path><path d="M134.72,190c.05.06.53-.33,1.25-.51s1.32-.1,1.34-.18a1.76,1.76,0,0,0-1.41-.1C135.1,189.39,134.66,189.92,134.72,190Z" style="fill:#455a64"></path><path d="M141.35,210.41a3.35,3.35,0,0,0,.76-1,7.66,7.66,0,0,0,1-2.78,7.82,7.82,0,0,0-.1-3,3.05,3.05,0,0,0-.43-1.14s.11.45.23,1.18a8.81,8.81,0,0,1,0,2.88,8.65,8.65,0,0,1-.9,2.72C141.59,210,141.31,210.38,141.35,210.41Z" style="fill:#455a64"></path><path d="M139.5,210.3a5.2,5.2,0,0,0,1.54-2.62,5.26,5.26,0,0,0,.08-3,13.32,13.32,0,0,1-.36,3A13.12,13.12,0,0,1,139.5,210.3Z" style="fill:#455a64"></path><path d="M136.26,209.66a1.67,1.67,0,0,0,.74-.36,5,5,0,0,0,2.06-3.32,1.78,1.78,0,0,0,0-.82,9.05,9.05,0,0,1-.93,2.55A8.6,8.6,0,0,1,136.26,209.66Z" style="fill:#455a64"></path><path d="M174.31,275.57l20.95,3.18,14.1-2.47,8.54-.79,5.9,4.89a3.6,3.6,0,0,1,1.3,2.83L225,287.5l-.89.57.74,2.05a2.41,2.41,0,0,1-.64,2.6h0l-5.88-6,3.42,6.74a3.82,3.82,0,0,1-3,.25c-2-.45-6.12-8.27-6.12-8.27l-3.28-1,5.93,8.69s.23.69-1.36,1-8.54-6.92-8.54-6.92a14.77,14.77,0,0,1-6.38,3.57c-3.45.68-36.51,2.71-36.51,2.71l-1.48-27.41,11.52-1.23Z" style="fill:#936760"></path><path d="M221.78,293.47a14.81,14.81,0,0,1-1.16-2.16c-.67-1.35-1.57-3.24-2.54-5.34a4.07,4.07,0,0,0-1.86-2.34c-.84-.39-1.68-.68-2.35-1a12,12,0,0,1-2.15-1,12.65,12.65,0,0,1,2.26.68c.68.26,1.5.49,2.41.9a4.37,4.37,0,0,1,2.08,2.53c1,2.09,1.82,4,2.42,5.38A13.68,13.68,0,0,1,221.78,293.47Z" style="fill:#6f4c47"></path><path d="M223.93,288.15a19.38,19.38,0,0,1-1.27-1.95,49.24,49.24,0,0,0-3.21-4.56l-1-1.24-.49-.59-.23-.28s-.09-.12-.11-.12h0l-.07,0a24.21,24.21,0,0,0-2.44-.48,12.76,12.76,0,0,1-2.29-.46,10.69,10.69,0,0,1,2.33.14,18.06,18.06,0,0,1,2.53.4l.1,0a.74.74,0,0,1,.15.08,1.67,1.67,0,0,1,.14.15l.24.28.49.58,1,1.24a33.14,33.14,0,0,1,3.14,4.68A8.15,8.15,0,0,1,223.93,288.15Z" style="fill:#6f4c47"></path><path d="M196.47,285.6s.4.19,1.14.42a6.51,6.51,0,0,0,3.22.11,5.94,5.94,0,0,0,2-.87c.67-.45,1.29-1.07,2-1.66a6.58,6.58,0,0,1,2.7-1.29,13.45,13.45,0,0,0,2.91-1,10.42,10.42,0,0,0,1.34-.78c.21-.14.41-.3.6-.45a.81.81,0,0,0,.18-.21.11.11,0,0,0,0-.1,1,1,0,0,0-.53-.09l-.74,0-1.43-.05-4.93-.18-3.33-.16a5.21,5.21,0,0,1-1.21-.13,6.5,6.5,0,0,1,1.22-.06H205l4.94.07,1.42,0h.74a1.21,1.21,0,0,1,.89.26.57.57,0,0,1,.08.62,1.2,1.2,0,0,1-.31.38,7.73,7.73,0,0,1-.64.49,9.18,9.18,0,0,1-1.4.82,13.81,13.81,0,0,1-3,1,6,6,0,0,0-2.53,1.18c-.72.55-1.37,1.17-2.09,1.63a5.94,5.94,0,0,1-2.19.88,6.31,6.31,0,0,1-3.35-.28,5.23,5.23,0,0,1-.82-.4A1.23,1.23,0,0,1,196.47,285.6Z" style="fill:#6f4c47"></path><path d="M170.3,372.18s-22.57,10.31-44.53,10.31c-20.34,0-43.09-10.24-43.09-10.24Z" style="fill:#e0e0e0"></path><rect x="123.47" y="373.16" width="8.71" height="91.22" transform="translate(255.64 837.55) rotate(180)" style="fill:#e0e0e0"></rect><rect x="88.78" y="460.61" width="77.3" height="5.35" transform="translate(254.85 926.57) rotate(180)" style="fill:#e0e0e0"></rect><path d="M157,468.26a5.9,5.9,0,1,0,5.9-5.9A5.9,5.9,0,0,0,157,468.26Z" style="fill:#263238"></path><path d="M122.66,468.26a5.9,5.9,0,1,0,5.9-5.9A5.9,5.9,0,0,0,122.66,468.26Z" style="fill:#263238"></path><path d="M82.88,468.26a5.9,5.9,0,1,0,5.9-5.9A5.9,5.9,0,0,0,82.88,468.26Z" style="fill:#263238"></path><rect x="125.77" y="406" width="11.85" height="4.9" transform="translate(263.38 816.9) rotate(180)" style="fill:#e0e0e0"></rect><rect x="135.45" y="402.57" width="4.31" height="11.77" transform="translate(275.22 816.9) rotate(180)" style="fill:#e0e0e0"></rect><path d="M80.73,372.18h96.71a6.54,6.54,0,0,0,6.55-6.54h0a6.55,6.55,0,0,0-6.55-6.55H72.25v4.61A8.48,8.48,0,0,0,80.73,372.18Z" style="fill:#455a64"></path><path d="M147.58,231.63l-68.25.84a6.2,6.2,0,0,0-6.12,6.14l-1,120.48,91.95,1.26-10.38-123A6.18,6.18,0,0,0,147.58,231.63Z" style="fill:#455a64"></path><path d="M225.88,437.35l-.38,23.27s23.52,8.2,23.87,12.5l-45.13.89-.91-36.27Z" style="fill:#92E3A9"></path><path d="M211.51,458.94a1.85,1.85,0,0,0-1.24,2.13,1.77,1.77,0,0,0,2.1,1.24,2,2,0,0,0,1.3-2.26,1.85,1.85,0,0,0-2.33-1.05" style="fill:#e0e0e0"></path><path d="M204.24,474l-.15-3.66,43.46.52s2,.83,1.82,2.25Z" style="fill:#e0e0e0"></path><path d="M226.23,460.38c0,.22-1.1.34-2.17,1.07s-1.63,1.67-1.84,1.58.1-1.36,1.41-2.22S226.27,460.17,226.23,460.38Z" style="fill:#263238"></path><path d="M231,462.24c.06.21-.89.61-1.62,1.55s-.93,1.94-1.15,1.94-.38-1.25.55-2.41S231,462,231,462.24Z" style="fill:#263238"></path><path d="M233.8,467.85c-.2,0-.53-1,0-2.26s1.56-1.72,1.66-1.54-.53.84-1,1.85S234,467.83,233.8,467.85Z" style="fill:#263238"></path><path d="M225.73,455.06c-.09.21-1.11-.08-2.35,0s-2.21.52-2.33.34.8-1,2.27-1.1S225.83,454.89,225.73,455.06Z" style="fill:#263238"></path><path d="M158.06,317.75s13.37,2,27.14,4.57c16.51,3.06,34.08,6.9,36.44,8.75,4.32,3.39,5.24,12.65,7.09,24.07S231,451.51,231,451.51l-30.66.89-6.06-89.13s-44.77,0-54-.07c-7.43-.05-27.42.78-35-3.22-11.94-6.28-9.71-30.24-9.71-30.24,3-2.56,54-17.68,54-17.68Z" style="fill:#263238"></path><path d="M233.56,381.47,238,404.93s25.32,3.39,26.56,7.64l-45.17,10.19L211,386.5Z" style="fill:#92E3A9"></path><path d="M223.56,406.12a1.89,1.89,0,0,0-.8,2.39,1.82,1.82,0,0,0,2.37.82,2,2,0,0,0,.83-2.54,1.88,1.88,0,0,0-2.55-.58" style="fill:#e0e0e0"></path><path d="M219.54,423.72l-.81-3.52,43.5-9.52s2.21.42,2.3,1.89Z" style="fill:#e0e0e0"></path><path d="M238.65,404.53c0,.22-1,.57-2,1.53s-1.3,2-1.52,2-.18-1.38,1-2.52S238.65,404.32,238.65,404.53Z" style="fill:#263238"></path><path d="M243.83,405.42c.1.2-.77.79-1.31,1.9s-.53,2.13-.75,2.17-.65-1.17,0-2.53S243.78,405.21,243.83,405.42Z" style="fill:#263238"></path><path d="M247.8,410.48c-.19.1-.75-.94-.45-2.27s1.22-2,1.35-1.89-.36.95-.58,2.05S248,410.41,247.8,410.48Z" style="fill:#263238"></path><path d="M237.05,399.3c0,.22-1.12.14-2.35.51s-2.11,1-2.27.81.6-1.16,2-1.57S237.12,399.1,237.05,399.3Z" style="fill:#263238"></path><path d="M211.61,300.36s10.56-.74,12.83,8.3c3.14,12.53,17,87.42,17,87.42l-31.21,6L193.77,329l-29.57-4.81L152,319.34s6.89-7.34,21.15-11.89C182.87,304.36,211.61,300.36,211.61,300.36Z" style="fill:#263238"></path><path d="M193.87,330.92a23.44,23.44,0,0,1,3.71-4.53,24.21,24.21,0,0,1,5-3.05,10.36,10.36,0,0,0-5.32,2.67,12.66,12.66,0,0,0-2.71,3.28A4.38,4.38,0,0,0,193.87,330.92Z" style="fill:#455a64"></path><path d="M200.67,316.09s-.23.11-.58.38a11.63,11.63,0,0,0-1.4,1.28A17.88,17.88,0,0,0,193.77,329a11.57,11.57,0,0,0,0,1.9,2.21,2.21,0,0,0,.12.69c.09,0,0-1,.22-2.56a21,21,0,0,1,1.57-5.9A21.22,21.22,0,0,1,199,318C200,316.79,200.73,316.15,200.67,316.09Z" style="fill:#455a64"></path><path d="M225.85,316.08s0,.13.1.39.14.65.24,1.14c.21,1,.51,2.51.91,4.43.77,3.88,1.89,9.52,3.3,16.6L241.68,396l0,.24-.23.05-31.22,6-.24.05-.05-.24c-.16-.73-.34-1.51-.52-2.3-6.05-27-11.6-51.72-15.88-70.8l.16.15-31.05-5.14-8.5-1.44-2.21-.39-.75-.15s.26,0,.76.1l2.22.33,8.52,1.33,31.07,5,.13,0,0,.13,16,70.78c.18.79.36,1.57.52,2.3l-.29-.19,31.22-6-.19.28c-4.49-23.22-8.36-43.22-11.1-57.44-1.35-7.09-2.43-12.73-3.17-16.62-.36-1.93-.64-3.42-.83-4.45-.09-.49-.15-.87-.2-1.14Z" style="fill:#455a64"></path><line x1="162.44" y1="292.06" x2="163.78" y2="310.78" style="fill:#92E3A9"></line><path d="M158.27,223.43l-12.12-5.93-2.34-3.05L139.44,222l-23.71-13.54v5.14s-19.66,7.94-22.48,10.5c-3.45,3.15,3.36,57.31,3.36,57.31s-3.43,42.12-2.17,50.5a236,236,0,0,1,27.77-6.08c12.6-1.73,28.49-6.31,28.49-6.31l13.12-8.17Z" style="fill:#92E3A9"></path><path d="M139.44,222a4.19,4.19,0,0,1-.78-.22l-2.15-.76.19-.09c-.51,1.8-1.17,4.17-1.94,6.9l-.09.31-.26-.18c-1.66-1.12-3.47-2.38-5.35-3.72-3.77-2.68-7.12-5.22-9.5-7.09-1.2-.94-2.15-1.71-2.8-2.26a7.33,7.33,0,0,1-1-.88,6.28,6.28,0,0,1,1.1.73l2.89,2.13c2.44,1.8,5.82,4.28,9.59,7l5.31,3.74-.35.12,2.1-6.85.05-.16.14.06,2.1.88A3,3,0,0,1,139.44,222Z" style="fill:#263238"></path><path d="M146.15,217.5a15.22,15.22,0,0,1-1,2.57c-.68,1.56-1.63,3.7-2.72,6.06-.14.29-.27.58-.4.87l-.38.81-.1-.9c-.27-2.65-.52-5-.76-6.46l.26.07a9,9,0,0,1-1.38,1.32,7.91,7.91,0,0,1,1.16-1.52l.19-.22.07.29a60.69,60.69,0,0,1,1,6.47l-.47-.08c.13-.29.26-.58.4-.87,1.08-2.35,2.09-4.47,2.84-6A14.67,14.67,0,0,1,146.15,217.5Z" style="fill:#263238"></path><path d="M141.2,285.29c-.14,0-.7-13.55-1.25-30.27s-.88-30.28-.74-30.28.69,13.54,1.24,30.27S141.33,285.29,141.2,285.29Z" style="fill:#263238"></path><path d="M161.47,277.13l-.35.18a7.23,7.23,0,0,1-1.06.37,10.91,10.91,0,0,1-4.13.36,12.39,12.39,0,0,1-5.78-2.07,11.74,11.74,0,0,1-4.5-6,23.6,23.6,0,0,1-1.1-7.44c0-2.31.12-4.38.15-6.11s0-3.13-.09-4.1a11.62,11.62,0,0,1-.11-1.5,1.87,1.87,0,0,1,.11.38c.06.25.12.62.19,1.1a31.61,31.61,0,0,1,.25,4.12c0,1.75-.07,3.82,0,6.1a23.56,23.56,0,0,0,1.12,7.28,11.42,11.42,0,0,0,4.28,5.78,12.39,12.39,0,0,0,5.56,2.1,12.1,12.1,0,0,0,4-.19C161,277.29,161.45,277.07,161.47,277.13Z" style="fill:#263238"></path><path d="M160.13,251a59.55,59.55,0,0,1-7.73.25,59.55,59.55,0,0,1-7.73-.25,59.55,59.55,0,0,1,7.73-.25A59.55,59.55,0,0,1,160.13,251Z" style="fill:#263238"></path><path d="M159.64,256.62a52.43,52.43,0,0,1-7.32.26,52.52,52.52,0,0,1-7.33-.26,55.54,55.54,0,0,1,7.33-.25A55.45,55.45,0,0,1,159.64,256.62Z" style="fill:#263238"></path><path d="M168.81,237.59c-1.06-8.12-10.54-14.16-10.54-14.16l1.37,44.12,13.53.26S169.86,245.72,168.81,237.59Z" style="fill:#92E3A9"></path><path d="M160,245.52a3.71,3.71,0,0,1,.07.71c0,.51.06,1.18.1,2,.08,1.81.2,4.33.34,7.43.28,6.27.73,14.94,1.28,24.5s1.12,18.23,1.6,24.5c.24,3.08.44,5.6.58,7.41.07.84.12,1.51.17,2a3.45,3.45,0,0,1,0,.71,3.34,3.34,0,0,1-.12-.69c-.07-.51-.16-1.18-.26-2-.21-1.75-.47-4.28-.75-7.41-.56-6.25-1.18-14.91-1.74-24.49s-.94-18.24-1.14-24.52c-.1-3.14-.15-5.68-.17-7.44,0-.84,0-1.51,0-2A6.63,6.63,0,0,1,160,245.52Z" style="fill:#263238"></path><path d="M180.75,362.24c0,.13-21.08.25-47.08.25s-47.09-.12-47.09-.25,21.08-.25,47.09-.25S180.75,362.1,180.75,362.24Z" style="fill:#263238"></path><path d="M86.26,310.93c.14,0,.25,11.38.25,25.4s-.11,25.41-.25,25.41S86,350.37,86,336.33,86.12,310.93,86.26,310.93Z" style="fill:#263238"></path><path d="M73.81,310.78l47.58.57a1.23,1.23,0,0,1,1.17,1.41l-7.13,59.45H126.6l5.76-65.44a3.83,3.83,0,0,0-3.67-4.3l-55.59-.33Z" style="fill:#455a64"></path><path d="M115,311.13c0,.14-8,.25-17.86.25s-17.86-.11-17.86-.25,8-.25,17.86-.25S115,311,115,311.13Z" style="fill:#263238"></path><path d="M99.6,301.9c0,.14-4.77.25-10.65.25S78.3,302,78.3,301.9s4.77-.25,10.65-.25S99.6,301.77,99.6,301.9Z" style="fill:#263238"></path><path d="M160.07,301.47a1.85,1.85,0,0,1-1.14-3.31,23.75,23.75,0,0,1,13.8-5c8-.28,12.31,2.78,14.53,5.28a1.85,1.85,0,0,1-1.4,3.07Z" style="fill:#e0e0e0"></path><path d="M160.07,301.47a2.64,2.64,0,0,1,.66-.05l1.91-.05,7-.05,10.42,0h5.35a4.31,4.31,0,0,0,.74,0,1.61,1.61,0,0,0,1.18-2.15,4.6,4.6,0,0,0-1-1.19,14.36,14.36,0,0,0-1.25-1.07,16.09,16.09,0,0,0-5.83-2.76,23.46,23.46,0,0,0-6-.66,24,24,0,0,0-10,2.26,25.5,25.5,0,0,0-3.44,2,5.33,5.33,0,0,0-1.22,1,1.77,1.77,0,0,0-.25,1.24,1.82,1.82,0,0,0,1.09,1.37c.39.15.63.13.63.17a1.38,1.38,0,0,1-.67-.07,1.93,1.93,0,0,1-1-2.84,5,5,0,0,1,1.25-1.12,23.45,23.45,0,0,1,3.45-2.07,24.8,24.8,0,0,1,16.3-1.77,16.82,16.82,0,0,1,6,2.84,15.35,15.35,0,0,1,1.3,1.12c.2.2.4.4.59.61a2.31,2.31,0,0,1,.51.76,2.12,2.12,0,0,1-1.56,2.84,4.13,4.13,0,0,1-.84,0h-2.35l-3,0-10.41-.1-7-.1-1.91-.06A5,5,0,0,1,160.07,301.47Z" style="fill:#263238"></path><path d="M187.8,300.2c0,.14-6.58.26-14.69.26s-14.68-.12-14.68-.26,6.57-.26,14.68-.26S187.8,300.05,187.8,300.2Z" style="fill:#263238"></path><path d="M176.57,293.19a19.42,19.42,0,0,0-1.41,3.19,17.89,17.89,0,0,0-.28,3.48,5.89,5.89,0,0,1,1.69-6.67Z" style="fill:#263238"></path><path d="M184.64,300.51a9.45,9.45,0,0,0-4.65-6.67c0-.06.51,0,1.21.42a6.9,6.9,0,0,1,2.29,2.09,6.79,6.79,0,0,1,1.17,2.87A2.34,2.34,0,0,1,184.64,300.51Z" style="fill:#263238"></path><path d="M85.46,262.47s-4.75,25-5,28.42c-.52,6.34,3.26,12.62,9.55,13.08,4.26.31,54-6.69,54-6.69l-1.47-12.1L102.94,282l2-16.47Z" style="fill:#936760"></path><path d="M119.07,283.31l23.46,1.87,16.94-1.55,8.29-.1,5.31,5.19a3.48,3.48,0,0,1,1,2.83l-.4,4.14-.91.47.55,2a2.32,2.32,0,0,1-.81,2.45h0l-5.2-6.24,2.76,6.77a3.71,3.71,0,0,1-2.9,0c-1.93-.59-5.24-8.46-5.24-8.46l-3.09-1.26,5,8.85s.16.68-1.4.87-7.69-7.35-7.69-7.35a14.24,14.24,0,0,1-6.43,2.94L137.89,298Z" style="fill:#936760"></path><path d="M170.09,301.18a13.82,13.82,0,0,1-1.07-2.26c-.61-1.43-1.42-3.4-2.3-5.6a4.21,4.21,0,0,0-1.79-2.51c-.86-.48-1.73-.85-2.42-1.2a12.74,12.74,0,0,1-2.2-1.18,15,15,0,0,1,2.34.9c.71.32,1.55.63,2.48,1.13a4.53,4.53,0,0,1,2,2.73c.87,2.18,1.63,4.17,2.16,5.61A13.2,13.2,0,0,1,170.09,301.18Z" style="fill:#6f4c47"></path><path d="M172.59,296.22a16.61,16.61,0,0,1-1.07-2,50.34,50.34,0,0,0-2.75-4.65l-.87-1.28c-.14-.2-.29-.4-.42-.6l-.21-.29s-.07-.12-.09-.12h0l-.07,0c-.81-.3-1.65-.48-2.31-.66a11.78,11.78,0,0,1-2.17-.62,10.71,10.71,0,0,1,2.23.32,18.28,18.28,0,0,1,2.41.58l.09,0,.14.09a.74.74,0,0,1,.12.16l.21.28.43.6.89,1.28a32.1,32.1,0,0,1,2.66,4.76A8.77,8.77,0,0,1,172.59,296.22Z" style="fill:#6f4c47"></path><path d="M136.38,298.34l.33-.07,1-.15,3.77-.54,6-.82a13.39,13.39,0,0,0,7.25-3.05l.13-.1.1.12c1.19,1.43,2.49,2.93,3.94,4.44a23.14,23.14,0,0,0,2.35,2.17,4.05,4.05,0,0,0,.66.45,1,1,0,0,0,.68.19,2.75,2.75,0,0,0,.76-.2c.23-.09.4-.31.37-.41l0,.05-5.06-8.84-.32-.55.59.24,3.09,1.25.09,0,0,.08a48.4,48.4,0,0,0,2.84,5.67,9.2,9.2,0,0,0,2,2.5,3.8,3.8,0,0,0,3,.17l-.09.29-2.77-6.76-.59-1.45,1,1.2,3.79,4.54,1.41,1.7-.33,0a2.09,2.09,0,0,0,.78-1.93c-.16-.73-.41-1.54-.6-2.3l-.05-.19.17-.09.9-.48-.12.19c.12-1.26.24-2.52.37-3.76a3.38,3.38,0,0,0-1.09-3.17l-5.14-5,.17.06-8.3.09h0l-16.94,1.51h0l-17.15-1.45-4.67-.42-1.21-.12-.42-.06a1.92,1.92,0,0,1,.42,0l1.22.07,4.67.33L142.55,285h0l16.93-1.6h0l8.3-.11h.1l.06.07c1.68,1.64,3.4,3.31,5.15,5a3.7,3.7,0,0,1,1.08,1.6,4.06,4.06,0,0,1,.15,1.95c-.12,1.24-.24,2.5-.36,3.76l0,.13-.11.06-.91.48.12-.28c.21.79.44,1.51.62,2.36a2.59,2.59,0,0,1-1,2.38l-.19.15-.15-.18-1.41-1.7-3.79-4.54.41-.25,2.76,6.77.08.2-.17.09a3.41,3.41,0,0,1-1.8.29,5,5,0,0,1-.86-.14l-.42-.11-.44-.22a9.56,9.56,0,0,1-2.1-2.65,51,51,0,0,1-2.86-5.73l.12.12-3.08-1.26.27-.31,5,8.85,0,0h0c-.51,1.67-2.4,1.11-3.11.37a25.3,25.3,0,0,1-2.37-2.22c-1.45-1.53-2.75-3-3.93-4.49l.23,0a13.6,13.6,0,0,1-7.43,3.06l-6,.74-3.78.45-1,.11Z" style="fill:#6f4c47"></path><path d="M78.52,268.73l17.56,1.13,14.13-.89-.59-23.89L104,217.74S90.05,221.07,86.66,233C84.15,241.82,78.52,268.73,78.52,268.73Z" style="fill:#92E3A9"></path><path d="M106.25,231.83a6,6,0,0,1,.43,1.23,29.27,29.27,0,0,1,.74,3.48,108,108,0,0,1,.81,11.67c.18,4.56.31,8.69.38,11.68,0,1.42,0,2.61.07,3.54a6,6,0,0,1-.05,1.3,7.08,7.08,0,0,1-.14-1.29c-.06-.93-.13-2.11-.22-3.54-.16-3-.35-7.11-.53-11.67s-.26-8.69-.66-11.65c-.18-1.47-.41-2.66-.58-3.47A8.6,8.6,0,0,1,106.25,231.83Z" style="fill:#263238"></path></g><g id="freepik--Desk--inject-27"><rect x="196.66" y="298.14" width="63.88" height="3.5" transform="translate(457.19 599.79) rotate(180)" style="fill:#e0e0e0"></rect><path d="M230.79,301.45c-.14,0-.25-.71-.25-1.59s.11-1.58.25-1.58.25.71.25,1.58S230.93,301.45,230.79,301.45Z" style="fill:#263238"></path><polygon points="185.97 306.65 193.74 306.65 193.74 308.36 176.74 472.95 167.67 472.95 185.97 306.65" style="fill:#455a64"></polygon><path d="M186,306.66s0,.3-.08.86-.14,1.42-.25,2.52c-.24,2.21-.58,5.46-1,9.64-.91,8.37-2.21,20.48-3.83,35.48-3.27,30-7.81,71.53-12.86,117.82l-.26-.29h9.07l-.26.23c8-77.47,14.85-143,17.18-164.57h0c0-.79,0-1.26,0-1.7l.07.07-5.86,0-1.43,0H186l.45,0,1.42,0,5.9,0h.07v1.78h0C191.69,330,185,395.5,177,473l0,.23h-9.59l0-.29c5.14-46.35,9.76-87.95,13.09-118,1.68-15,3-27.06,4-35.41.47-4.15.84-7.38,1.09-9.58l.29-2.47C185.93,306.93,186,306.66,186,306.66Z" style="fill:#263238"></path><polygon points="323.21 306.65 330.98 306.65 330.98 308.41 314.79 474.16 306.81 474.16 323.21 306.65" style="fill:#263238"></polygon><polygon points="153.52 308.37 430.38 308.67 430.48 301.36 153.52 301.36 153.52 308.37" style="fill:#455a64"></polygon><polygon points="391.43 306.65 383.66 306.65 383.66 308.41 399.85 474.16 407.82 474.16 391.43 306.65" style="fill:#455a64"></polygon><path d="M391.78,308.83s0,.29.07.86.13,1.4.23,2.49c.2,2.2.51,5.42.9,9.57.8,8.31,1.95,20.34,3.38,35.24,2.89,29.77,6.9,71,11.36,117l.21-.23h-8l.21.19c-7.56-76.74-14-141.75-16.09-163.34h0c0-.81,0-1.29,0-1.75l-.06.06,5.87,0h1.9l-.45,0h-1.42l-5.9,0H384v1.82h0c2.08,21.6,8.37,86.62,15.79,163.37l0,.2h8.41l0-.24c-4.54-46-8.61-87.3-11.54-117.11-1.49-14.87-2.68-26.88-3.51-35.17-.42-4.13-.74-7.34-1-9.52-.11-1.08-.19-1.9-.25-2.47S391.78,308.83,391.78,308.83Z" style="fill:#263238"></path><polygon points="279.24 307.29 287.01 307.29 287.01 309.04 270.83 474.16 262.85 474.16 279.24 307.29" style="fill:#455a64"></polygon><path d="M278.89,309.45s0,.3-.07.86-.12,1.4-.22,2.49c-.21,2.18-.51,5.39-.91,9.53-.79,8.28-1.95,20.26-3.38,35.1C271.42,387.09,267.42,428.19,263,474l-.21-.24h8l-.22.19c7.56-76.45,14-141.21,16.09-162.72h0c0-.82,0-1.3,0-1.76l.06.06-5.86,0h-1.43l-.48,0h1.87l5.9,0h.06v.06c0,.46,0,.94,0,1.76h0c-2.09,21.52-8.38,86.29-15.8,162.76l0,.19H262.5l0-.24c4.54-45.83,8.61-87,11.55-116.66,1.48-14.82,2.68-26.78,3.51-35.05.41-4.11.74-7.3,1-9.48.11-1.07.2-1.89.26-2.45Z" style="fill:#263238"></path><path d="M279.78,281.31l90.94-1.57a2.86,2.86,0,0,0,2.92-2.74V198.69a2.87,2.87,0,0,0-3-2.74H279.73a2.86,2.86,0,0,0-3,2.74v79.88A2.87,2.87,0,0,0,279.78,281.31Z" style="fill:#e0e0e0"></path><path d="M340.2,259.36v42H294.28a2.74,2.74,0,0,1,2.85-2.62h20.11V259.36Z" style="fill:#e0e0e0"></path><path d="M294.28,301.36a2.17,2.17,0,0,1,.23-1,3.21,3.21,0,0,1,2.61-1.72h0c4.28-.05,11.49-.1,20.11-.11l-.26.24c0-2.49,0-5.16,0-7.91,0-8.38.06-16,.08-21.54,0-2.71.06-4.92.08-6.53,0-.72,0-1.31.06-1.77a2.29,2.29,0,0,1,.05-.62,2.5,2.5,0,0,1,.06.62c0,.46,0,1.05.05,1.77,0,1.61,0,3.82.08,6.53,0,5.57.05,13.16.08,21.54,0,2.75,0,5.42,0,7.91V299h-.26c-8.62,0-15.83-.06-20.11-.12h0a3.11,3.11,0,0,0-2.5,1.52A7,7,0,0,0,294.28,301.36Z" style="fill:#263238"></path><path d="M322.61,301.36c-.15,0-.27-9.18-.27-20.49s.12-20.5.27-20.5.27,9.18.27,20.5S322.76,301.36,322.61,301.36Z" style="fill:#263238"></path><path d="M283.78,280.54c-.15,0-.27-19-.27-42.33s.12-42.33.27-42.33.27,19,.27,42.33S283.93,280.54,283.78,280.54Z" style="fill:#263238"></path><path d="M340.2,260.37c.14,0,.25,9.18.25,20.49s-.11,20.5-.25,20.5-.25-9.17-.25-20.5S340.06,260.37,340.2,260.37Z" style="fill:#263238"></path><path d="M326.64,236.24a5,5,0,1,0,5-5A5,5,0,0,0,326.64,236.24Z" style="fill:#fff"></path><path d="M304,308.46a24.37,24.37,0,0,1,0-7.1,24.37,24.37,0,0,1,0,7.1Z" style="fill:#263238"></path><path d="M154.56,308.42c0-.14,55.82-.25,124.66-.25s124.67.11,124.67.25-55.81.25-124.67.25S154.56,308.55,154.56,308.42Z" style="fill:#263238"></path></g></svg>