<svg width="64" height="64" viewBox="0 0 64 64" fill="none" xmlns="http://www.w3.org/2000/svg">
<g id="icon">
<path id="Rectangle 6" d="M15 10H50V54H15V10Z" stroke="#494949" stroke-width="4"/>
<path id="$" d="M36.2542 46V44.7661C39.3077 44.5017 41 42.9153 41 40.3301C41 38.1267 39.7676 36.7656 37.3487 36.2661L36.2542 36.0507V33.0052C37.0452 33.1423 37.6246 33.818 37.6522 34.5916H40.7425C40.7149 32.2609 38.9858 30.6158 36.2542 30.3416V29H34.9298V30.3318C31.959 30.5668 30.2483 32.1532 30.2483 34.6895C30.2483 36.8341 31.4808 38.2442 33.8353 38.7926L34.9298 39.0472V42.2005C33.9457 42.0927 33.2375 41.4171 33.1915 40.5553H30C30.0092 43.0622 31.8211 44.6192 34.9298 44.7857V46H36.2542ZM37.8545 40.7316C37.8545 41.5639 37.2567 42.1221 36.2542 42.2005V39.2823C37.3303 39.4977 37.8545 39.9775 37.8545 40.7316ZM33.4766 34.3566C33.4766 33.6025 34.0744 33.0444 34.9298 32.9856V35.7667C33.9824 35.5611 33.4766 35.0714 33.4766 34.3566Z" fill="#FD665E"/>
</g>
</svg>
