<svg width="61" height="28" viewBox="0 0 61 28" fill="none" xmlns="http://www.w3.org/2000/svg">
<g id="logo-arch" clip-path="url(#clip0_1755_3411)">
<g id="Arch">
<path d="M13.0814 12.68L8.76895 0.524902H6.36058L2.13049 12.3095C1.41003 14.3473 1.07039 14.7178 0 14.9134V15.4177H4.12717V14.9134C2.71714 14.6973 2.5113 14.2444 3.11854 12.3506L3.78753 10.3231H8.39843L9.16006 12.5874C9.71584 14.2753 9.45853 14.7178 8.15142 14.9134V15.4177H15.0678V14.9134C14.0283 14.7178 13.668 14.3267 13.0814 12.68ZM4.01396 9.60262L6.06211 3.32438L8.16171 9.60262H4.01396Z" fill="#FD665E"/>
<path d="M19.0826 5.05347L14.5334 5.60925V6.08269L15.0583 6.24736C15.6244 6.44292 15.717 6.58701 15.717 7.256V13.8018C15.717 14.5223 15.5523 14.7487 14.5334 14.9134V15.4177H20.4205V14.9134C19.2884 14.7281 19.1031 14.512 19.1031 13.6989V8.3058C19.556 7.88382 20.5955 7.61623 21.6144 7.61623C22.2011 7.61623 22.798 7.70886 23.0965 7.82207C23.22 7.57506 23.3332 7.14279 23.3332 6.70022C23.3332 5.77392 22.8907 5.03289 21.9644 5.03289C20.9249 5.03289 20.0603 5.90772 19.0723 7.95587L19.0826 5.05347Z" fill="#FD665E"/>
<path d="M28.6448 15.6236C30.4974 15.6236 32.0413 14.9134 32.8029 13.8224V13.3181C32.2883 13.8224 31.3929 14.1621 30.3945 14.1621C28.3464 14.1621 26.6893 12.5462 26.6893 9.71584C26.6893 7.35892 27.9244 5.85626 29.7873 5.85626C30.3431 5.85626 30.8371 5.99006 31.2282 6.23707C31.2076 6.22678 31.1973 6.22678 31.1767 6.22678C30.3842 6.22678 29.7358 6.88548 29.7358 7.71915C29.7358 8.55282 30.4048 9.21152 31.2488 9.21152C32.0721 9.21152 32.7617 8.56311 32.7617 7.6574C32.7617 6.17532 31.3517 4.99172 28.8713 4.99172C25.5983 4.99172 23.19 7.17366 23.19 10.3231C23.19 13.5857 25.6086 15.6236 28.6448 15.6236Z" fill="#FD665E"/>
<path d="M37.5278 0L32.9581 0.555779V1.02922L33.483 1.20419C34.0594 1.39974 34.1417 1.54383 34.1417 2.21282V13.7813C34.1417 14.5223 33.9564 14.7384 32.9581 14.9134V15.4177H38.557V14.9134C37.6616 14.7487 37.5278 14.5635 37.5278 13.843V7.36921C37.8366 6.79285 38.485 6.40175 39.329 6.40175C40.492 6.40175 41.1713 7.09132 41.1713 8.47048V13.843C41.1713 14.5635 41.0169 14.759 40.142 14.9134V15.4177H45.741V14.9134C44.7221 14.7384 44.5471 14.5223 44.5471 13.7813V8.27493C44.5471 6.05181 43.1371 4.99172 41.0478 4.99172C39.3084 4.99172 38.0424 5.78422 37.5072 6.94723L37.5278 0Z" fill="#FD665E"/>
</g>
<g id="move">
<path d="M14.262 17.4299L9.71289 17.9857V18.4591L10.2378 18.6238C10.8142 18.8194 10.8965 18.9635 10.8965 19.6324V26.1577C10.8965 26.8987 10.7112 27.1149 9.71289 27.2898V27.7942H15.3118V27.2898C14.4164 27.1355 14.2826 26.9399 14.2826 26.2195V19.7457C14.5914 19.1796 15.178 18.7782 16.0117 18.7782C17.0924 18.7782 17.7099 19.4575 17.7099 20.8263V26.2195C17.7099 26.9399 17.5864 27.1355 16.691 27.2898V27.7942H22.1253V27.2898C21.2299 27.1355 21.0961 26.9399 21.0961 26.2195V20.4764C21.0961 20.1882 21.0755 19.9412 21.024 19.6942C21.3431 19.1384 21.9606 18.7782 22.7943 18.7782C23.8852 18.7782 24.5234 19.4575 24.5234 20.8263V26.2195C24.5234 26.9399 24.3896 27.1252 23.4941 27.2898V27.7942H29.0931V27.2898C28.0845 27.1149 27.9095 26.8987 27.9095 26.1577V20.6308C27.9095 18.4591 26.5612 17.3682 24.5131 17.3682C22.7943 17.3682 21.4666 18.1915 20.9623 19.3546C20.5917 18.068 19.3773 17.3682 17.7614 17.3682C16.0117 17.3682 14.7561 18.1915 14.262 19.3443V17.4299Z" fill="#FD665E"/>
<path d="M35.084 28C38.3981 28 40.8785 25.7975 40.8785 22.6378C40.8785 19.4163 38.4187 17.3682 35.1252 17.3682C31.8214 17.3682 29.3409 19.5604 29.3409 22.7201C29.3409 25.9519 31.8008 28 35.084 28ZM35.156 27.3207C33.7769 27.3207 32.9226 25.5505 32.9226 22.6069C32.9226 19.7662 33.6637 18.0474 35.0634 18.0474C36.4323 18.0474 37.2865 19.8074 37.2865 22.751C37.2865 25.5916 36.5455 27.3207 35.156 27.3207Z" fill="#FD665E"/>
<path d="M41.8365 19.7662L44.9242 27.8147H46.7767L49.7203 20.1882C50.3584 18.5312 50.6466 18.243 51.47 18.0783V17.5637H48.0324V18.0783C49.1954 18.243 49.3292 18.5724 48.8455 20.1059L47.2193 24.9844L45.5931 20.0853C45.1197 18.5724 45.2535 18.2327 46.4474 18.0783V17.5637H40.2618V18.0783C41.0749 18.2533 41.3528 18.5415 41.8365 19.7662Z" fill="#FD665E"/>
<path d="M50.668 22.6995C50.668 25.9724 53.0867 28 56.1538 28C58.0681 28 59.6325 27.3104 60.3839 26.1783L60.3736 25.674C59.859 26.1989 58.9944 26.5797 57.9858 26.5797C55.9068 26.5797 54.3732 25.0667 54.1056 22.3908H60.5177C60.5382 22.2158 60.5691 21.9482 60.5691 21.6806C60.5691 19.1281 58.8606 17.3682 56.0097 17.3682C52.7985 17.3682 50.668 19.5707 50.668 22.6995ZM54.0542 21.5056C54.0542 19.2928 54.7643 18.0474 56.0097 18.0474C57.1006 18.0474 57.5947 19.2208 57.5947 21.0528C57.5947 21.3512 57.5947 21.5674 57.5844 21.7629L54.0644 21.8041C54.0542 21.7012 54.0542 21.6086 54.0542 21.5056Z" fill="#FD665E"/>
</g>
</g>
<defs>
<clipPath id="clip0_1755_3411">
<rect width="60.569" height="28" fill="white"/>
</clipPath>
</defs>
</svg>
