<svg width="89" height="30" viewBox="0 0 89 30" fill="none" xmlns="http://www.w3.org/2000/svg">
<g id="Logo">
<g id="Icon">
<path d="M0.617188 2.7658C1.64214 3.2324 2.60971 4.20681 3.12972 5.72637C4.5298 9.81764 9.00401 12.6055 12.8812 10.4869C14.4174 9.64752 17.0676 10.5549 18.0665 13.4738C19.4666 17.5651 23.9408 20.353 27.818 18.2343C28.214 18.018 28.6839 17.9177 29.1806 17.938V20.8486C27.6891 20.3765 26.0645 20.4478 24.5331 21.2847C22.9969 22.124 20.3467 21.2166 19.3478 18.2978C17.9477 14.2065 13.4735 11.4186 9.5963 13.5372C8.06014 14.3766 5.40989 13.4692 4.41103 10.5503C3.73117 8.56367 2.32644 6.88433 0.617188 5.92488V2.7658Z" fill="white"/>
<path d="M3.34639 0.718262C4.60548 1.70323 5.61545 3.09764 6.16014 4.68932C7.159 7.60817 9.80925 8.5156 11.3454 7.6762C15.2226 5.55758 19.6968 8.34548 21.0969 12.4368C22.0958 15.3556 24.746 16.263 26.2822 15.4236C27.2305 14.9054 28.2145 14.6808 29.1806 14.6969V0.718262H3.34639Z" fill="white"/>
<path d="M0.617188 10.0918V13.1773C1.48995 14.0722 2.18547 15.1811 2.60499 16.407C3.60385 19.3258 6.2541 20.2333 7.79026 19.3939C11.6675 17.2752 16.1417 20.0631 17.5418 24.1544C18.5406 27.0733 21.1909 27.9807 22.727 27.1413C24.907 25.9501 27.2757 26.31 29.1806 27.5805V24.3555C28.1151 23.7016 26.9207 23.6299 26.0689 24.0954C22.1917 26.214 17.7175 23.4261 16.3174 19.3348C15.3185 16.416 12.6683 15.5085 11.1321 16.3479C7.2549 18.4666 2.78069 15.6787 1.38061 11.5874C1.18341 11.0111 0.921842 10.5133 0.617188 10.0918Z" fill="white"/>
<path d="M17.4813 29.2816C16.1497 28.2916 15.0784 26.8484 14.5114 25.1915C13.5125 22.2726 10.8623 21.3652 9.3261 22.2046C6.15173 23.9391 2.5772 22.3848 0.617188 19.5191V29.2816H17.4813Z" fill="white"/>
</g>
<g id="Dune">
<path fill-rule="evenodd" clip-rule="evenodd" d="M41.3879 6.80371C42.8483 6.80371 44.1241 7.01766 45.2155 7.4454C46.3071 7.87313 47.2142 8.46305 47.937 9.21531C48.6596 9.95286 49.1982 10.801 49.552 11.7597C49.9207 12.7038 50.1053 13.6846 50.1053 14.7024V15.1891C50.1053 16.1626 49.9207 17.1213 49.552 18.0655C49.1982 19.0095 48.6596 19.865 47.937 20.6319C47.2142 21.3989 46.3071 22.0111 45.2155 22.4683C44.1241 22.9256 42.8483 23.1542 41.3879 23.1542H35.5469V6.80371H41.3879ZM41.5871 20.2337H38.6885V9.72421H41.5871C42.4279 9.72421 43.1726 9.84229 43.8217 10.0783C44.4854 10.3143 45.0459 10.6609 45.5032 11.1182C45.9605 11.5754 46.3071 12.1285 46.5429 12.7775C46.7938 13.4118 46.9192 14.1345 46.9192 14.9457C46.9192 15.7276 46.7938 16.4429 46.5429 17.0919C46.3071 17.7261 45.9605 18.2793 45.5032 18.7513C45.0459 19.2233 44.4854 19.592 43.8217 19.8576C43.1726 20.1083 42.4279 20.2337 41.5871 20.2337Z" fill="white"/>
<path d="M52.4318 22.0701C53.1988 22.9845 54.2757 23.4418 55.662 23.4418H55.7949C56.7242 23.4418 57.4986 23.2354 58.118 22.8224C58.7376 22.4093 59.2021 21.7972 59.5118 20.986C59.5975 20.7617 59.6713 20.5223 59.7332 20.2677V23.0657H62.167V11.0296H59.0914V18.1318C59.0914 18.9136 58.863 19.5331 58.4057 19.9904C57.9631 20.4475 57.3879 20.6762 56.6798 20.6762C55.9719 20.6762 55.4114 20.4624 54.9982 20.0345C54.5853 19.592 54.3789 19.002 54.3789 18.2646V11.0296H51.3036V17.999C51.3036 19.7985 51.6795 21.1555 52.4318 22.0701Z" fill="white"/>
<path d="M64.5933 23.0657V11.0517H67.0271V14.0128C67.0984 13.7044 67.1869 13.4181 67.2927 13.1536C67.6173 12.3277 68.0965 11.7081 68.7309 11.2952C69.3799 10.8822 70.1838 10.6756 71.1425 10.6756H71.2751C72.7061 10.6756 73.7902 11.1402 74.5278 12.0695C75.265 12.9839 75.6338 14.3558 75.6338 16.1848V23.0657H72.5585V15.9193C72.5585 15.1817 72.3445 14.5845 71.9169 14.1272C71.5037 13.6699 70.9285 13.4412 70.191 13.4412C69.4387 13.4412 68.8266 13.6772 68.3546 14.1492C67.8973 14.6065 67.669 15.226 67.669 16.0078V23.0657H64.5933Z" fill="white"/>
<path fill-rule="evenodd" clip-rule="evenodd" d="M80.4889 22.9551C81.2709 23.3091 82.1779 23.4861 83.2104 23.4861C84.1985 23.4861 85.0762 23.3164 85.8432 22.9772C86.6252 22.638 87.2667 22.1586 87.7681 21.539C88.2698 20.9195 88.6089 20.1968 88.7859 19.3707H85.9539C85.821 19.8133 85.5188 20.1895 85.0468 20.4991C84.5748 20.7942 83.9627 20.9417 83.2104 20.9417C82.4582 20.9417 81.8386 20.7794 81.3519 20.4549C80.8652 20.1157 80.5036 19.6584 80.2677 19.0831C80.1107 18.6912 80.0059 18.2635 79.9534 17.7999H88.9851V16.6936C88.9851 15.6317 88.7637 14.6434 88.3214 13.7288C87.8788 12.7997 87.2151 12.0548 86.3299 11.4943C85.4597 10.9191 84.3756 10.6313 83.0775 10.6313C82.0894 10.6313 81.2192 10.8083 80.467 11.1624C79.7147 11.5016 79.0804 11.9663 78.564 12.5562C78.0626 13.1316 77.6791 13.7953 77.4135 14.5476C77.1627 15.285 77.0376 16.0521 77.0376 16.8486V17.269C77.0376 18.0359 77.1627 18.7882 77.4135 19.5257C77.6791 20.2631 78.0626 20.9344 78.564 21.539C79.0804 22.1291 79.7219 22.6011 80.4889 22.9551ZM80.0059 15.9193C80.0651 15.5813 80.1523 15.2715 80.2677 14.99C80.4035 14.6708 80.5715 14.3927 80.772 14.1555C80.9418 13.9542 81.1351 13.7825 81.3519 13.6403C81.8239 13.3307 82.3991 13.1758 83.0775 13.1758C83.756 13.1758 84.3165 13.3233 84.7591 13.6183C85.2164 13.9132 85.5557 14.3336 85.7769 14.8794C85.8326 15.0169 85.8813 15.1614 85.9229 15.313C85.9433 15.3863 85.9617 15.4612 85.9786 15.5378C86.0058 15.6608 86.0287 15.7879 86.0471 15.9193H80.0059Z" fill="white"/>
</g>
</g>
</svg>
