<svg width="125" height="32" viewBox="0 0 125 32" fill="none" xmlns="http://www.w3.org/2000/svg">
<g id="Logo">
<g id="Icon">
<path id="Subtract" fill-rule="evenodd" clip-rule="evenodd" d="M31.8079 14.8073C32.4138 17.6975 32.1335 20.3858 31.1544 22.6275L31.2063 22.6267C30.3669 24.924 27.5748 29.7306 21.001 31.109C20.7509 31.1615 20.5011 31.203 20.2519 31.2342C19.6248 31.3264 18.9742 31.3741 18.3027 31.3741C10.5174 31.3741 2.8628 24.9656 1.20553 17.0603C0.416128 13.2947 1.12985 9.86878 2.93523 7.31329C3.7738 5.69909 8.17325 1.78429 11.7236 1.02358C11.82 1.00291 11.9128 0.986721 12.002 0.974838C12.94 0.746506 13.9405 0.625977 14.9937 0.625977C22.638 0.625977 30.166 6.97518 31.8079 14.8073ZM29.1318 14.1443C30.4208 20.2929 26.5987 25.2773 20.5949 25.2773C14.591 25.2773 8.67903 20.2929 7.39005 14.1443C6.10106 7.99572 9.92319 3.0113 15.927 3.0113C21.9308 3.0113 27.8428 7.99572 29.1318 14.1443ZM20.2284 21.8316C24.6722 21.8316 27.5196 18.2301 26.5883 13.7875C25.6569 9.34484 21.2995 5.74337 16.8556 5.74337C12.4118 5.74337 9.56435 9.34484 10.4957 13.7875C11.4271 18.2301 15.7845 21.8316 20.2284 21.8316ZM24.1869 13.454C24.7712 16.241 22.9364 18.5003 20.0889 18.5003C17.2413 18.5003 14.4593 16.241 13.875 13.454C13.2908 10.667 15.1256 8.40776 17.9731 8.40776C20.8207 8.40776 23.6027 10.667 24.1869 13.454ZM21.576 13.4543C21.8643 14.8298 20.9588 15.9448 19.5534 15.9448C18.148 15.9448 16.775 14.8298 16.4866 13.4543C16.1983 12.0788 17.1038 10.9638 18.5092 10.9638C19.9146 10.9638 21.2876 12.0788 21.576 13.4543Z" fill="white"/>
</g>
<g id="Union">
<path d="M52.4071 23.0464C52.4071 23.2233 52.5505 23.3667 52.7274 23.3667H55.1622C55.3391 23.3667 55.4825 23.2233 55.4825 23.0464V11.3528H52.7274C52.5505 11.3528 52.4071 11.4962 52.4071 11.6731V23.0464Z" fill="white"/>
<path d="M52.5062 9.45C52.8012 9.75975 53.251 9.91463 53.8558 9.91463C54.4606 9.91463 54.9031 9.75975 55.1833 9.45C55.4636 9.1255 55.6037 8.72725 55.6037 8.25524C55.6037 7.75374 55.4636 7.34811 55.1833 7.03836C54.9031 6.72861 54.4606 6.57373 53.8558 6.57373C53.251 6.57373 52.8012 6.72861 52.5062 7.03836C52.2259 7.34811 52.0858 7.75374 52.0858 8.25524C52.0858 8.72725 52.2259 9.1255 52.5062 9.45Z" fill="white"/>
<path fill-rule="evenodd" clip-rule="evenodd" d="M47.5593 17.7469C46.6153 18.1894 45.4648 18.4107 44.1078 18.4107H41.674V23.0464C41.674 23.2233 41.5306 23.3667 41.3537 23.3667H38.8525C38.6756 23.3667 38.5322 23.2233 38.5322 23.0464V7.42503C38.5322 7.24814 38.6756 7.10474 38.8525 7.10474H41.3537C41.3883 7.10474 41.4216 7.11021 41.4527 7.12034C41.4839 7.11021 41.5172 7.10474 41.5518 7.10474H44.1078C45.4648 7.10474 46.6153 7.32599 47.5593 7.76849C48.5181 8.21099 49.2482 8.84525 49.7497 9.67125C50.2512 10.4825 50.5019 11.4486 50.5019 12.5697V12.9237C50.5019 14.0447 50.2512 15.0182 49.7497 15.8442C49.2482 16.6554 48.5181 17.2897 47.5593 17.7469ZM45.9663 10.2023C45.5385 9.95151 45.0075 9.82613 44.3733 9.82613H41.674V15.6893H44.3733C45.0075 15.6893 45.5385 15.5639 45.9663 15.3132C46.4088 15.0624 46.7407 14.7158 46.9619 14.2733C47.1979 13.8308 47.3159 13.3219 47.3159 12.7467C47.3159 12.1714 47.1979 11.6625 46.9619 11.22C46.7407 10.7775 46.4088 10.4383 45.9663 10.2023Z" fill="white"/>
<path d="M58.2409 23.3667C58.064 23.3667 57.9206 23.2233 57.9206 23.0464V11.6731C57.9206 11.4962 58.064 11.3528 58.2409 11.3528H60.0341C60.211 11.3528 60.3544 11.4962 60.3544 11.6731V14.3133C60.4257 14.0052 60.5142 13.719 60.6199 13.4547C60.9444 12.6287 61.4238 12.0091 62.058 11.5961C62.707 11.1831 63.5109 10.9766 64.4697 10.9766H64.6024C66.0332 10.9766 67.1173 11.4413 67.8548 12.3705C68.5923 13.285 68.9611 14.6568 68.9611 16.4858V23.0464C68.9611 23.2233 68.8177 23.3667 68.6408 23.3667H66.206C66.0291 23.3667 65.8857 23.2233 65.8857 23.0464V16.2203C65.8857 15.4828 65.6718 14.8854 65.244 14.4282C64.831 13.9709 64.2558 13.7423 63.5183 13.7423C62.766 13.7423 62.1539 13.9783 61.6819 14.4503C61.2246 14.9075 60.996 15.527 60.996 16.3088V23.0464C60.996 23.2233 60.8526 23.3667 60.6757 23.3667H58.2409Z" fill="white"/>
<path fill-rule="evenodd" clip-rule="evenodd" d="M80.4316 17.7469C79.4876 18.1894 78.3371 18.4107 76.9801 18.4107H74.5463V23.0464C74.5463 23.2233 74.4029 23.3667 74.226 23.3667H71.7248C71.5479 23.3667 71.4045 23.2233 71.4045 23.0464V7.42503C71.4045 7.24814 71.5479 7.10474 71.7248 7.10474H74.226C74.2606 7.10474 74.2938 7.11021 74.325 7.12034C74.3562 7.11021 74.3895 7.10474 74.4241 7.10474H76.9801C78.3371 7.10474 79.4876 7.32599 80.4316 7.76849C81.3903 8.21099 82.1205 8.84525 82.622 9.67125C83.1235 10.4825 83.3742 11.4486 83.3742 12.5697V12.9237C83.3742 14.0447 83.1235 15.0182 82.622 15.8442C82.1205 16.6554 81.3903 17.2897 80.4316 17.7469ZM78.8386 10.2023C78.4108 9.95151 77.8798 9.82613 77.2456 9.82613H74.5463V15.6893H77.2456C77.8798 15.6893 78.4108 15.5639 78.8386 15.3132C79.2811 15.0624 79.6129 14.7158 79.8342 14.2733C80.0702 13.8308 80.1882 13.3219 80.1882 12.7467C80.1882 12.1714 80.0702 11.6625 79.8342 11.22C79.6129 10.7775 79.2811 10.4383 78.8386 10.2023Z" fill="white"/>
<path fill-rule="evenodd" clip-rule="evenodd" d="M90.2195 23.7871C89.1575 23.7871 88.2209 23.6175 87.4096 23.2782C86.5984 22.939 85.9125 22.4817 85.352 21.9065C84.7915 21.3165 84.3638 20.6527 84.0687 19.9152C83.7885 19.1777 83.6484 18.4107 83.6484 17.6142V17.1496C83.6484 16.3236 83.7959 15.5418 84.0909 14.8043C84.4006 14.052 84.8358 13.3883 85.3963 12.813C85.9715 12.223 86.6648 11.7658 87.476 11.4413C88.2873 11.102 89.2018 10.9324 90.2195 10.9324C91.2373 10.9324 92.1518 11.102 92.9631 11.4413C93.7743 11.7658 94.4602 12.223 95.0207 12.813C95.596 13.3883 96.0311 14.052 96.3261 14.8043C96.6211 15.5418 96.7686 16.3236 96.7686 17.1496V17.6142C96.7686 18.4107 96.6211 19.1777 96.3261 19.9152C96.0458 20.6527 95.6255 21.3165 95.0649 21.9065C94.5044 22.4817 93.8186 22.939 93.0073 23.2782C92.1961 23.6175 91.2668 23.7871 90.2195 23.7871ZM90.2195 21.1542C90.9718 21.1542 91.6061 20.992 92.1223 20.6675C92.6386 20.3282 93.0294 19.8783 93.2949 19.3178C93.5604 18.7426 93.6932 18.0936 93.6932 17.3708C93.6932 16.6333 93.5531 15.9843 93.2728 15.4238C93.0073 14.8485 92.6091 14.3987 92.0781 14.0742C91.5618 13.7349 90.9423 13.5653 90.2195 13.5653C89.4968 13.5653 88.8699 13.7349 88.3389 14.0742C87.8227 14.3987 87.4244 14.8485 87.1441 15.4238C86.8639 15.9843 86.7238 16.6333 86.7238 17.3708C86.7238 18.0936 86.8565 18.7426 87.122 19.3178C87.4023 19.8783 87.8005 20.3282 88.3168 20.6675C88.833 20.992 89.4673 21.1542 90.2195 21.1542Z" fill="white"/>
<path d="M98.9305 23.0464C98.9305 23.2233 99.0739 23.3667 99.2508 23.3667H101.686C101.862 23.3667 102.006 23.2233 102.006 23.0464V11.3528H99.2508C99.0739 11.3528 98.9305 11.4962 98.9305 11.6731V23.0464Z" fill="white"/>
<path d="M99.0295 9.45C99.3245 9.75975 99.7744 9.91463 100.379 9.91463C100.984 9.91463 101.426 9.75975 101.707 9.45C101.987 9.1255 102.127 8.72725 102.127 8.25524C102.127 7.75374 101.987 7.34811 101.707 7.03836C101.426 6.72861 100.984 6.57373 100.379 6.57373C99.7744 6.57373 99.3245 6.72861 99.0295 7.03836C98.7492 7.34811 98.6091 7.75374 98.6091 8.25524C98.6091 8.72725 98.7492 9.1255 99.0295 9.45Z" fill="white"/>
<path d="M104.764 23.3667C104.587 23.3667 104.444 23.2233 104.444 23.0464V11.6731C104.444 11.4962 104.587 11.3528 104.764 11.3528H106.557C106.734 11.3528 106.878 11.4962 106.878 11.6731V14.3133C106.949 14.0052 107.037 13.719 107.143 13.4547C107.468 12.6287 107.947 12.0091 108.581 11.5961C109.23 11.1831 110.034 10.9766 110.993 10.9766H111.126C112.557 10.9766 113.641 11.4413 114.378 12.3705C115.116 13.285 115.484 14.6568 115.484 16.4858V23.0464C115.484 23.2233 115.341 23.3667 115.164 23.3667H112.729C112.552 23.3667 112.409 23.2233 112.409 23.0464V16.2203C112.409 15.4828 112.195 14.8854 111.767 14.4282C111.354 13.9709 110.779 13.7423 110.042 13.7423C109.289 13.7423 108.677 13.9783 108.205 14.4503C107.748 14.9075 107.519 15.527 107.519 16.3088V23.0464C107.519 23.2233 107.376 23.3667 107.199 23.3667H104.764Z" fill="white"/>
<path d="M120.162 23.1012C120.885 23.3815 121.8 23.5216 122.906 23.5216H124.311C124.488 23.5216 124.632 23.3782 124.632 23.2013V21.209C124.632 21.0321 124.488 20.8887 124.311 20.8887H122.751C122.161 20.8887 121.704 20.7338 121.379 20.4241C121.07 20.0996 120.915 19.6423 120.915 19.0523L120.926 13.6095H124.311C124.488 13.6095 124.632 13.4661 124.632 13.2892V11.6731C124.632 11.4962 124.488 11.3528 124.311 11.3528H120.93L120.936 8.28855C120.937 8.11141 120.793 7.96762 120.616 7.96762H118.38C118.204 7.96762 118.06 8.11062 118.06 8.28726L118.054 11.3528H116.456C116.279 11.3528 116.136 11.4962 116.136 11.6731V13.2892C116.136 13.4661 116.279 13.6095 116.456 13.6095H118.049L118.038 18.8532C118.038 20.0185 118.215 20.9477 118.569 21.641C118.923 22.3195 119.454 22.8062 120.162 23.1012Z" fill="white"/>
</g>
</g>
</svg>
