<svg width="145" height="22" viewBox="0 0 145 22" fill="none" xmlns="http://www.w3.org/2000/svg">
<g id="Logo">
<g id="Nextmove">
<path d="M27.1909 19.6668V1.25146H30.5583L39.2135 14.2211V1.25146H42.5809V19.6668H39.2135L30.5583 6.72344V19.6668H27.1909Z" fill="white"/>
<path d="M51.0967 19.9825C49.7813 19.9825 48.615 19.7019 47.5978 19.1406C46.5806 18.5794 45.7826 17.7902 45.2038 16.7729C44.625 15.7557 44.3357 14.5806 44.3357 13.2477C44.3357 11.8973 44.6163 10.6959 45.1775 9.64359C45.7563 8.59128 46.5455 7.77575 47.5452 7.19698C48.5624 6.60068 49.755 6.30252 51.123 6.30252C52.4033 6.30252 53.5345 6.58314 54.5167 7.14437C55.4988 7.7056 56.2618 8.47728 56.8055 9.45943C57.3667 10.424 57.6473 11.5027 57.6473 12.6953C57.6473 12.8882 57.6385 13.0899 57.621 13.3003C57.621 13.5108 57.6122 13.73 57.5947 13.958H47.6767C47.7469 14.9753 48.0976 15.7733 48.729 16.352C49.378 16.9308 50.1584 17.2202 51.0704 17.2202C51.7544 17.2202 52.3244 17.0711 52.7804 16.7729C53.2539 16.4573 53.6047 16.0539 53.8327 15.5628H57.2527C57.0072 16.3871 56.595 17.1413 56.0162 17.8252C55.455 18.4917 54.7535 19.0179 53.9116 19.4037C53.0873 19.7896 52.149 19.9825 51.0967 19.9825ZM51.123 9.03851C50.2987 9.03851 49.5709 9.27528 48.9395 9.74882C48.3081 10.2048 47.9047 10.9064 47.7293 11.8534H54.2273C54.1747 10.994 53.859 10.31 53.2802 9.80143C52.7015 9.29282 51.9824 9.03851 51.123 9.03851Z" fill="white"/>
<path d="M57.0285 19.6668L61.7638 13.1425L57.0285 6.61821H60.6326L63.9474 11.2484L67.2358 6.61821H70.8663L66.1046 13.1425L70.8663 19.6668H67.2358L63.9474 15.0366L60.6326 19.6668H57.0285Z" fill="white"/>
<path d="M77.5102 19.6668C76.1422 19.6668 75.046 19.3336 74.2217 18.6671C73.3974 18.0006 72.9852 16.8168 72.9852 15.1156V9.43313H70.7491V6.61821H72.9852L73.3799 3.1193H76.3526V6.61821H79.8778V9.43313H76.3526V15.1419C76.3526 15.7733 76.4842 16.2117 76.7472 16.4573C77.0278 16.6853 77.5014 16.7993 78.1678 16.7993H79.7989V19.6668H77.5102Z" fill="white"/>
<path d="M81.4536 19.6668V6.61821H84.4264L84.7158 8.38082C85.1367 7.74944 85.6891 7.2496 86.3731 6.88129C87.0747 6.49545 87.8814 6.30252 88.7934 6.30252C90.8104 6.30252 92.2397 7.08298 93.0816 8.6439C93.5551 7.92483 94.1865 7.35483 94.9757 6.93391C95.7825 6.51298 96.6594 6.30252 97.6065 6.30252C99.3077 6.30252 100.614 6.81114 101.526 7.82836C102.438 8.84559 102.894 10.3364 102.894 12.3007V19.6668H99.5269V12.6163C99.5269 11.4939 99.3077 10.6345 98.8693 10.0382C98.4483 9.4419 97.7906 9.14374 96.8962 9.14374C95.9842 9.14374 95.2476 9.47697 94.6863 10.1434C94.1427 10.8099 93.8708 11.7394 93.8708 12.932V19.6668H90.5034V12.6163C90.5034 11.4939 90.2842 10.6345 89.8457 10.0382C89.4073 9.4419 88.7321 9.14374 87.8201 9.14374C86.9256 9.14374 86.1978 9.47697 85.6365 10.1434C85.0928 10.8099 84.821 11.7394 84.821 12.932V19.6668H81.4536Z" fill="white"/>
<path d="M111.037 19.9825C109.774 19.9825 108.634 19.6931 107.617 19.1143C106.617 18.5356 105.819 17.7376 105.223 16.7203C104.644 15.6856 104.355 14.493 104.355 13.1425C104.355 11.792 104.653 10.6082 105.249 9.59097C105.846 8.55621 106.644 7.74944 107.643 7.17067C108.661 6.59191 109.801 6.30252 111.063 6.30252C112.309 6.30252 113.431 6.59191 114.431 7.17067C115.448 7.74944 116.246 8.55621 116.825 9.59097C117.421 10.6082 117.719 11.792 117.719 13.1425C117.719 14.493 117.421 15.6856 116.825 16.7203C116.246 17.7376 115.448 18.5356 114.431 19.1143C113.414 19.6931 112.282 19.9825 111.037 19.9825ZM111.037 17.0623C111.914 17.0623 112.677 16.7379 113.326 16.0889C113.975 15.4225 114.299 14.4403 114.299 13.1425C114.299 11.8447 113.975 10.8713 113.326 10.2224C112.677 9.5559 111.923 9.22267 111.063 9.22267C110.169 9.22267 109.397 9.5559 108.748 10.2224C108.117 10.8713 107.801 11.8447 107.801 13.1425C107.801 14.4403 108.117 15.4225 108.748 16.0889C109.397 16.7379 110.16 17.0623 111.037 17.0623Z" fill="white"/>
<path d="M122.298 19.6668L117.51 6.61821H121.035L124.35 16.4836L127.664 6.61821H131.19L126.375 19.6668H122.298Z" fill="white"/>
<path d="M137.696 19.9825C136.381 19.9825 135.214 19.7019 134.197 19.1406C133.18 18.5794 132.382 17.7902 131.803 16.7729C131.224 15.7557 130.935 14.5806 130.935 13.2477C130.935 11.8973 131.216 10.6959 131.777 9.64359C132.356 8.59128 133.145 7.77575 134.144 7.19698C135.162 6.60068 136.354 6.30252 137.722 6.30252C139.003 6.30252 140.134 6.58314 141.116 7.14437C142.098 7.7056 142.861 8.47728 143.405 9.45943C143.966 10.424 144.247 11.5027 144.247 12.6953C144.247 12.8882 144.238 13.0899 144.22 13.3003C144.22 13.5108 144.211 13.73 144.194 13.958H134.276C134.346 14.9753 134.697 15.7733 135.328 16.352C135.977 16.9308 136.758 17.2202 137.67 17.2202C138.354 17.2202 138.924 17.0711 139.38 16.7729C139.853 16.4573 140.204 16.0539 140.432 15.5628H143.852C143.606 16.3871 143.194 17.1413 142.616 17.8252C142.054 18.4917 141.353 19.0179 140.511 19.4037C139.687 19.7896 138.748 19.9825 137.696 19.9825ZM137.722 9.03851C136.898 9.03851 136.17 9.27528 135.539 9.74882C134.907 10.2048 134.504 10.9064 134.329 11.8534H140.827C140.774 10.994 140.458 10.31 139.88 9.80143C139.301 9.29282 138.582 9.03851 137.722 9.03851Z" fill="white"/>
</g>
<g id="Icon">
<path d="M10.5866 0.893537V9.21842C10.5866 10.1686 9.8163 10.9389 8.86613 10.9389L0.541243 10.9389L0.541243 7.49798H4.70797L0.330078 3.12009L2.76315 0.687012L7.14568 5.06954L7.14568 0.893537L10.5866 0.893537Z" fill="white"/>
<path d="M20.7495 11.0568H12.4246C11.4744 11.0568 10.7042 11.8271 10.7042 12.7773V21.1022L14.1451 21.1022L14.1451 16.9351L18.5233 21.3133L20.9563 18.8802L16.5739 14.4977H20.7495V11.0568Z" fill="white"/>
</g>
</g>
</svg>
