<svg width="103" height="24" viewBox="0 0 103 24" fill="none" xmlns="http://www.w3.org/2000/svg">
<g id="Logo">
<g id="Text">
<path d="M35.2111 22.4001C32.8313 22.4001 30.975 21.7417 29.6423 20.4248C28.3254 19.108 27.667 17.2279 27.667 14.7846V5.45557H31.5223V14.6418C31.5223 17.6245 32.7599 19.1159 35.2349 19.1159C36.4407 19.1159 37.3609 18.7589 37.9955 18.045C38.6302 17.3151 38.9475 16.1807 38.9475 14.6418V5.45557H42.7552V14.7846C42.7552 17.2279 42.0889 19.108 40.7562 20.4248C39.4393 21.7417 37.591 22.4001 35.2111 22.4001Z" fill="white"/>
<path d="M44.6373 13.9278H51.3723V16.9026H44.6373V13.9278Z" fill="white"/>
<path d="M55.9561 8.59696H50.6253V5.45557H65.1423V8.59696H59.8115V22.1145H55.9561V8.59696Z" fill="white"/>
<path d="M78.3849 9.31092V22.1145H74.8627V20.5914C74.3709 21.1467 73.7838 21.5751 73.1016 21.8765C72.4194 22.1621 71.6816 22.3049 70.8884 22.3049C69.2066 22.3049 67.8739 21.821 66.8902 20.8532C65.9065 19.8854 65.4147 18.4495 65.4147 16.5457V9.31092H69.1273V15.9983C69.1273 18.0608 69.992 19.0921 71.7213 19.0921C72.6098 19.0921 73.3237 18.8065 73.8632 18.2353C74.4026 17.6483 74.6723 16.7836 74.6723 15.6413V9.31092H78.3849Z" fill="white"/>
<path d="M84.1804 11.0006C84.6246 10.3819 85.2196 9.91381 85.9653 9.5965C86.7268 9.27919 87.5994 9.12053 88.5831 9.12053V12.5475C88.1706 12.5158 87.8929 12.4999 87.7501 12.4999C86.6871 12.4999 85.8542 12.8014 85.2513 13.4043C84.6484 13.9913 84.347 14.8798 84.347 16.0697V22.1145H80.6344V9.31092H84.1804V11.0006Z" fill="white"/>
<path d="M97.3828 9.12053C98.9693 9.12053 100.247 9.5965 101.214 10.5484C102.198 11.5004 102.69 12.9124 102.69 14.7846V22.1145H98.9772V15.3557C98.9772 14.3403 98.7551 13.5867 98.3109 13.0949C97.8667 12.5872 97.2241 12.3333 96.3832 12.3333C95.4471 12.3333 94.7015 12.6268 94.1462 13.2139C93.5909 13.785 93.3132 14.6418 93.3132 15.7841V22.1145H89.6007V9.31092H93.1466V10.8102C93.6385 10.2708 94.2493 9.85828 94.9791 9.5727C95.7089 9.27125 96.5101 9.12053 97.3828 9.12053Z" fill="white"/>
</g>
<g id="Icon">
<path fill-rule="evenodd" clip-rule="evenodd" d="M11.0813 1.12621C11.7145 0.493087 12.741 0.493087 13.3741 1.12621L19.3029 7.05507L13.3471 12.7402C12.6994 13.3584 11.6732 13.3345 11.055 12.6869C10.4368 12.0392 10.4606 11.013 11.1083 10.3948L12.9369 8.6493H8.9853C5.82168 8.6493 3.25705 11.2139 3.25705 14.3775C3.25705 17.5412 5.82168 20.1058 8.9853 20.1058H16.9832C17.8786 20.1058 18.6044 20.8316 18.6044 21.727C18.6044 22.6224 17.8786 23.3482 16.9832 23.3482H8.9853C4.03095 23.3482 0.0146484 19.3319 0.0146484 14.3775C0.0146484 9.42319 4.03094 5.40689 8.9853 5.40689H13.0693L11.0813 3.41893C10.4482 2.78581 10.4482 1.75933 11.0813 1.12621Z" fill="white"/>
</g>
</g>
</svg>
