<svg width="92" height="28" viewBox="0 0 92 28" fill="none" xmlns="http://www.w3.org/2000/svg">
<g id="Logo">
<g id="Terra">
<path d="M30.134 5.93713V2.77686H46.0342V5.93713H39.8967V24.6434H36.3351V5.93713H30.134Z" fill="white"/>
<path d="M55.7735 21.7704L56.6639 21.6747L56.7275 24.2603C54.3107 24.7498 52.1695 24.9945 50.3038 24.9945C47.9506 24.9945 46.2546 24.3455 45.2158 23.0473C44.1982 21.7491 43.6894 19.6742 43.6894 16.8225C43.6894 11.1617 45.9896 8.33128 50.59 8.33128C55.0421 8.33128 57.2681 10.768 57.2681 15.6414L57.0455 18.1313H47.1874C47.2086 19.4508 47.4948 20.4191 48.046 21.0362C48.5972 21.6534 49.6254 21.962 51.1307 21.962C52.6359 21.962 54.1835 21.8981 55.7735 21.7704ZM53.8655 15.4499C53.8655 13.8751 53.6111 12.7791 53.1023 12.1619C52.6147 11.5235 51.7773 11.2043 50.59 11.2043C49.4028 11.2043 48.5336 11.5341 47.9824 12.1938C47.4524 12.8536 47.1768 13.9389 47.1556 15.4499H53.8655Z" fill="white"/>
<path d="M59.0111 24.6434V8.68242H62.4456V10.5977C64.2476 9.42726 66.0496 8.67178 67.8516 8.33128V11.8108C66.0284 12.1726 64.4702 12.6407 63.177 13.2153L62.4774 13.5026V24.6434H59.0111Z" fill="white"/>
<path d="M68.9115 24.6434V8.68242H72.3459V10.5977C74.1479 9.42726 75.9499 8.67178 77.7519 8.33128V11.8108C75.9287 12.1726 74.3705 12.6407 73.0773 13.2153L72.3777 13.5026V24.6434H68.9115Z" fill="white"/>
<path d="M90.5779 13.5984V20.8766C90.5991 21.3448 90.7157 21.6959 90.9277 21.93C91.1609 22.1428 91.5107 22.2812 91.9771 22.345L91.8817 24.9945C90.0585 24.9945 88.6487 24.6008 87.6523 23.8134C85.9562 24.6008 84.2496 24.9945 82.5324 24.9945C79.3736 24.9945 77.7942 23.3027 77.7942 19.919C77.7942 18.3016 78.2182 17.1311 79.0662 16.4075C79.9354 15.684 81.2604 15.2477 83.0412 15.0987L87.1434 14.7476V13.5984C87.1434 12.7472 86.9526 12.1513 86.571 11.8108C86.2106 11.4703 85.67 11.3 84.9492 11.3C83.5924 11.3 81.8964 11.3851 79.8612 11.5554L78.8436 11.6192L78.7164 9.16125C81.0272 8.60793 83.1472 8.33128 85.0764 8.33128C87.0268 8.33128 88.4261 8.7569 89.2741 9.60816C90.1433 10.4381 90.5779 11.7682 90.5779 13.5984ZM83.4546 17.5567C81.9918 17.6844 81.2604 18.4825 81.2604 19.9509C81.2604 21.4193 81.907 22.1535 83.2002 22.1535C84.2602 22.1535 85.3838 21.9832 86.571 21.6427L87.1434 21.4512V17.2056L83.4546 17.5567Z" fill="white"/>
</g>
<g id="Icon">
<path id="Icon_2" fill-rule="evenodd" clip-rule="evenodd" d="M20.514 0.944336C23.2812 0.944336 25.5899 2.90718 26.1238 5.51651C26.2001 5.88928 26.2402 6.27523 26.2402 6.67054V21.3296C26.2402 24.4921 23.6765 27.0558 20.514 27.0558H5.85487C5.22878 27.0558 4.62616 26.9554 4.06226 26.7697C1.77776 26.0173 0.128662 23.866 0.128662 21.3296V6.67054C0.128662 3.50805 2.69237 0.944336 5.85487 0.944336H20.514ZM18.1914 2.77672H20.514C22.4117 2.77672 23.9923 4.13428 24.3377 5.93122C23.2356 6.05609 21.9759 5.94038 20.6457 5.3703C19.4669 4.86508 18.685 3.92907 18.1914 2.77672ZM12.7545 2.77672H16.2349C16.8131 4.51738 17.9209 6.19609 19.9239 7.05452C21.5307 7.74313 23.0566 7.90287 24.4078 7.76868V9.64099C22.5733 10.2217 20.7452 10.4568 19.2825 10.0286C18.5559 9.816 17.7223 9.25141 16.8252 8.36326C15.9403 7.48726 15.0574 6.36059 14.2236 5.12906C13.7055 4.36372 13.2121 3.56649 12.7545 2.77672ZM10.6501 2.77672H8.22535C8.33586 4.85022 7.84731 7.38292 6.0299 9.94868C4.82582 11.6486 3.40196 12.5835 1.96105 13.0011V16.654C2.82929 16.1267 3.85142 15.4066 5.04813 14.4343C7.87571 12.1369 10.1028 11.2228 11.7915 11.0556C13.4705 10.8894 14.664 11.4718 15.1898 12.2079C15.7417 12.9806 16.0537 14.0161 16.1712 15.1083C16.29 16.2137 16.2176 17.4465 15.9388 18.6701C15.3846 21.1026 13.9776 23.6346 11.4429 24.9995C11.3049 25.0738 11.1656 25.1485 11.0252 25.2235H13.8733C14.9873 23.8094 15.8786 22.4044 16.1983 21.3032C16.5592 20.0603 16.7073 18.7426 16.8458 17.5107L16.8458 17.5104L16.8459 17.5101C16.8956 17.0677 16.9441 16.6362 17.0008 16.2232C17.099 15.5076 17.2345 14.7495 17.5258 14.2028C17.6799 13.9135 17.9247 13.5914 18.3188 13.4055C18.7336 13.2097 19.1652 13.2337 19.5439 13.36C20.6052 13.7137 22.0162 13.787 24.4078 13.188V11.5535C22.5635 12.0732 20.5526 12.3096 18.7677 11.7872C17.6161 11.4502 16.5228 10.6424 15.536 9.66545C14.537 8.67637 13.5789 7.44528 12.7063 6.15633C11.9598 5.05379 11.265 3.89263 10.6501 2.77672ZM24.4078 15.0725C22.1294 15.594 20.491 15.5723 19.1053 15.1436C19.0029 15.3833 18.9073 15.8085 18.8162 16.4724C18.7709 16.8022 18.7289 17.1771 18.6834 17.5825L18.6834 17.5828C18.5418 18.8463 18.367 20.4055 17.958 21.8141C17.6446 22.8939 16.9667 24.08 16.1608 25.2235H18.0043C18.3443 24.3779 18.6575 23.5726 18.9034 22.8956C19.1677 22.1682 19.3333 21.6451 19.3865 21.3789C19.4876 20.8733 19.6803 20.3295 20.1321 19.9438C20.602 19.5426 21.1793 19.4565 21.7201 19.484C22.2526 19.5111 22.877 19.6545 23.5814 19.8566C23.8375 19.93 24.1128 20.0139 24.4078 20.1069V15.0725ZM24.3482 22.012C23.8699 21.8567 23.4491 21.7249 23.0762 21.6179C22.3956 21.4227 21.9391 21.3299 21.627 21.3141C21.4255 21.3038 21.3439 21.3286 21.3205 21.3391C21.3074 21.3546 21.2423 21.4433 21.1833 21.7383C21.0991 22.1592 20.8859 22.8052 20.6257 23.5213C20.4389 24.0354 20.217 24.6149 19.9768 25.2235H20.514C22.4317 25.2235 24.0256 23.8371 24.3482 22.012ZM7.07152 25.2235C8.2715 24.6046 9.48269 23.9738 10.5741 23.3861C12.5059 22.346 13.6757 20.3543 14.1522 18.263C14.3888 17.2248 14.4451 16.1958 14.3493 15.3042C14.252 14.3994 14.0057 13.7027 13.6987 13.2729C13.6519 13.2073 13.1847 12.759 11.972 12.8791C10.769 12.9982 8.8732 13.6874 6.20362 15.8565C4.53252 17.2142 3.13403 18.1446 1.96105 18.7595V20.826C2.25021 20.5614 2.57672 20.3404 2.87846 20.1518C3.18588 19.9597 3.52084 19.7707 3.85002 19.5861L3.9316 19.5404C4.23911 19.368 4.54431 19.197 4.84738 19.0155C5.51037 18.6184 6.10652 18.2036 6.56491 17.721C7.35857 16.8855 8.50409 15.8883 9.58106 15.2075C10.1124 14.8717 10.6862 14.5746 11.2275 14.4383C11.7356 14.3103 12.5234 14.2582 13.0724 14.8857C13.5947 15.4829 13.8113 16.3786 13.4307 17.541C13.0693 18.6451 12.1616 20.0393 10.4071 21.8523C8.58587 23.7342 6.76458 24.677 5.22906 24.9774C5.05589 25.0112 4.88553 25.0371 4.71859 25.0551C5.07806 25.1646 5.45959 25.2235 5.85487 25.2235H7.07152ZM1.96105 11.0623C2.84883 10.6941 3.73327 10.0209 4.53463 8.88953C6.11694 6.65567 6.49929 4.48958 6.39042 2.77672H5.85487C3.70437 2.77672 1.96105 4.52005 1.96105 6.67054V11.0623ZM21.3187 21.3399C21.3144 21.342 21.3127 21.3433 21.3129 21.3435C21.313 21.3436 21.314 21.3431 21.3156 21.3421L21.3168 21.3413L21.3187 21.3399ZM10.5601 16.7564C9.63738 17.3397 8.60682 18.232 7.89346 18.983C7.264 19.6457 6.50021 20.1614 5.78892 20.5875C5.46203 20.7832 5.13425 20.9669 4.83043 21.1372L4.74628 21.1844C4.41334 21.3711 4.11481 21.54 3.84957 21.7057C3.27766 22.0632 3.03856 22.3034 2.96363 22.4573C2.94214 22.5014 2.93958 22.5267 2.94621 22.5652C2.95563 22.62 2.99507 22.7467 3.15198 22.9559L3.16724 22.9762L3.18136 22.9974C3.18224 22.9986 3.20286 23.027 3.26844 23.0672C3.33616 23.1086 3.44101 23.1555 3.58991 23.1921C3.88916 23.2657 4.32477 23.2872 4.87724 23.1791C5.97586 22.9641 7.47583 22.2463 9.09034 20.578C10.7716 18.8407 11.4553 17.6856 11.6893 16.971C11.8285 16.5455 11.8 16.3151 11.7555 16.1974C11.7332 16.2015 11.7066 16.2072 11.6752 16.2151C11.4106 16.2818 11.0286 16.4603 10.5601 16.7564ZM11.8541 16.1888C11.8537 16.1892 11.8482 16.1893 11.8389 16.1875C11.8498 16.1874 11.8545 16.1883 11.8541 16.1888Z" fill="white"/>
</g>
</g>
</svg>
